<svg id="Calque_1" data-name="Calque 1" xmlns="http://www.w3.org/2000/svg" viewBox="0 0 595.28 841.89"><defs><style>.cls-1{fill:none;}.cls-2{opacity:0.92;}</style></defs><path d="M232.57,547.8c-6.25-3.4-11.1-6.93-14.26-12.47-8.41-14.73-5.48-30.28,7.37-41.4,10.74-9.3,23.49-13.53,37.05-15.84,34-5.79,67.4-2.36,100.24,7.64a143.8,143.8,0,0,1,13.77,4.94,9.93,9.93,0,0,0,8,.07c12.69-4.91,25.44-9.65,38.18-14.43a23.43,23.43,0,0,1,4.48-1.39,4.54,4.54,0,0,1,5.55,3.52c1.42,4.82,2.83,9.65,4.43,14.42s3.31,9.2,5,13.78c1.61,4.3,1.85,4.56,6.5,3.95A123.22,123.22,0,0,0,480.66,502c30.67-12.88,52-35.49,65.18-65.49,14.69-33.42,11.31-65.72-9.53-95.82-4.35-6.28-9.76-11.84-14.74-17.67-15.3-17.91-30.85-35.61-45.84-53.78a176.64,176.64,0,0,1-15.22-22.51,75.86,75.86,0,0,1-10.77-41.56c.63-20.39,3.29-40.39,15-58,6.62-10,14.9-18.44,23.79-26.33a164.81,164.81,0,0,1,40.36-26c19.27-9.32,101.71-38,105.1-37.35,4,.83,8.13,1.51,13.26,2.45-2.1.94-85.59,32.56-100,38A152.68,152.68,0,0,0,501,123.06c-13.24,10.68-25.43,22.35-33,38-5,10.4-6.48,21.65-8,32.9-3.26,24.19,4.24,45.21,19.15,63.83,10.57,13.2,21.67,26,32.6,38.9,10,11.85,20.51,23.35,30.16,35.49,13.86,17.44,21,37.42,22.1,59.86,1.33,27.89-8,52-24.11,74.06a139.5,139.5,0,0,1-24.51,26.35c-15.74,12.85-33.68,21-53.33,25.53-4.39,1-8.85,1.77-14,2.77.6,1.92,1.07,3.69,1.7,5.4q11.64,31.7,23.33,63.38c.12.33.25.66.37,1,3,8.34,2.71,9-5.52,12.26L292.88,671,137.34,731.67c-1.47.57-2.92,1.18-4.42,1.64-5.3,1.64-9.36-.18-11.49-5.22-1.16-2.73-2.14-5.53-3.17-8.31Q99.2,668.21,80.16,616.64c-.37-1-.68-2-1.08-3-1.77-4.39-1.5-5.75,2.83-7.75,6.33-2.92,12.78-5.61,19.3-8.1q43-16.4,86.14-32.62,20.81-7.87,41.6-15.77C229.91,549.08,230.83,548.6,232.57,547.8ZM130.17,724.17,464.52,594c-13.4-36.21-26.61-71.93-40-108.17L88.69,612.32C102.5,649.57,116.24,686.61,130.17,724.17Zm235.3-226.46c-.33-.6-.38-.83-.51-.89a24.62,24.62,0,0,0-2.36-1,202.46,202.46,0,0,0-51.67-10.17c-18.34-1.18-36.59-1-54.55,3.67-9.95,2.57-19.1,6.54-26.46,14-6,6.11-8.34,13.25-5.82,21.53s8,13.71,16.94,15.08c1.89.29,3.76.87,5.66,1a16.75,16.75,0,0,0,6.05-.4c4.63-1.51,9.12-3.48,13.68-5.2q47.49-17.91,95-35.79C362.78,499,364.09,498.33,365.47,497.71Z"/><path d="M179.49,586.94l23.8-9,9.35,19.64-24.34,9.21C184,600.66,181.65,594.2,179.49,586.94ZM191,597.44l9.26-3.85c-.25-2.66-1-4.1-3.33-3.21-2.55,1-5,2.09-7.73,3.23Z"/><path d="M109.09,644l23.45-9.87c4.12,6.41,5.79,13.5,8.85,20.05l-25.49,9.32C113.72,657.27,111.51,651,109.09,644Zm11.54,3.57,2.19,5.3,7.58-3.28c-.59-1.69-1.07-3-1.65-4.67Z"/><path d="M426.91,515.55l-24.26,8.19c-2.36-6.64-4.66-13.08-7.09-19.91,6.39-2.45,12.3-4.93,18.36-6.95,3.64-1.22,6.09,0,7.56,3.65C423.44,505.32,425,510.27,426.91,515.55Zm-13.41-8c-8.4,2.34-8.5,2.44-6.85,6.55C414.36,512.8,415.47,511.82,413.5,507.54Z"/><path d="M122.28,608.88l8.26,20.55L107.4,638c-2.15-5.22-4.31-9.91-5-15.09-.6-4.42.28-6,4.33-7.81C111.64,613,116.68,611.11,122.28,608.88Zm-1.7,15.24c.14-.53.29-1.06.43-1.59-1-.55-2.06-1.6-3-1.53a9.68,9.68,0,0,0-4.3,1.63,2.68,2.68,0,0,0-.67,2.5,2.64,2.64,0,0,0,2.36.94A40.47,40.47,0,0,0,120.58,624.12Z"/><path d="M144.1,662.19,150,681.33c-5.89,2.28-11.23,5.07-16.9,6.36-7.06,1.6-9.26-.19-11-6.21-.88-3-2-5.9-3.06-8.87Zm-14.47,13.65c1.4,1,2.47,2.23,3.08,2a75.54,75.54,0,0,0,7.61-3.17C138,672,137.68,672,129.63,675.84Z"/><path d="M232.2,648.33,208.45,658c-2.45-6.28-4.73-12.16-7.19-18.48l24-9.39Zm-8.5-7.18c-5-.79-10.67,1.37-13.31,5C215.33,645.27,219.11,643.52,223.7,641.15Z"/><path d="M419.08,573.69c-2.11-6.83-4-13.05-6.06-19.67l23.64-8c1.64,4.6,3.48,9.07,4.78,13.69.82,2.94-.7,5-4.53,6.67C431.35,568.84,425.68,571,419.08,573.69Zm2.51-12.51c3.79-.41,7.49-1.14,11.35-4.64C427.88,557,424.53,558.54,421.59,561.18Z"/><path d="M144.85,652.9c-2.39-6.83-4.53-13-6.84-19.58l21.16-8.51c5,5.27,5.77,12.07,8.5,18.48C160.74,647.51,152.86,649.15,144.85,652.9Zm3.23-10L158.15,639,156,633.85l-9.7,4Z"/><path d="M147.74,660.88,171,651.13c1.86,6.67,3.57,12.8,5.46,19.55L155,679.43C152.52,673.18,150.18,667.17,147.74,660.88Zm9.16,7.46L169.76,663c-1.32-1-1.93-1.83-2.29-1.73-3.29.92-6.55,2-9.8,3C156.05,664.85,155.51,665.92,156.9,668.34Z"/><path d="M295.74,565.25l-7.45-19.92c7-3.12,13.78-5.48,21.13-8.17,2.42,6.73,4.66,13,7.05,19.69Zm4.28-9.82,7-2.74c-.7-1.5-1.16-2.5-1.8-3.89l-6.9,2.68Z"/><path d="M221.73,621.21,198,631l-7.59-17.53,24.87-9.26C217.35,609.79,219.42,615.21,221.73,621.21Zm-9.75-3.4c-1.43-1.62-2.42-3.43-3-3.31a71.41,71.41,0,0,0-8.53,2.66c.81,1.79,1.34,3,2,4.4Z"/><path d="M192.36,692.24c-4.27-4.87-4.54-5.6-6.79-18.42,6.84-2.46,13.75-5.12,20.79-7.39,3.06-1,4.43-.09,5.76,2.86a64.24,64.24,0,0,1,3.4,8.72c.86,3-.28,4.89-2.74,5.89-5.6,2.28-11.17,4.63-16.76,6.94C194.78,691.36,193.5,691.81,192.36,692.24ZM206.49,674l-14,5.08,2.72,5.44,12.28-5.07Z"/><path d="M369.39,536.92l-20.81,7.38c-2.39-6.76-4.58-12.95-6.95-19.68l20.33-8C364.45,523.47,366.82,529.9,369.39,536.92Zm-17.05-1.36,8-3.21c0-3-.66-4.61-3.65-3.36-1.11.47-2.2,1-3.34,1.34C350.58,531.21,350.38,532.81,352.34,535.56Z"/><path d="M161.88,704.4c-2.21-6.67-4.2-12.7-6.35-19.18l21.76-8.69c4.85,4.25,6.88,9.49,7.9,15.2.39,2.21-.19,4.12-2.64,5C175.89,699.17,169.25,701.66,161.88,704.4Zm2.38-6,13.28-6.75-2.25-5.73-12.93,4.31C163,693,163.56,695.33,164.26,698.35Z"/><path d="M271.06,574.46c-2.75-6.84-5.2-12.93-7.84-19.52l20.29-8.09c2.73,6.64,5.22,12.69,8,19.33Zm1.87-8.64,7.95-3.26c-.84-1.46-1.4-2.42-2.05-3.53-2,.72-3.79,1.31-5.53,2a13.56,13.56,0,0,0-1.92,1.2C271.87,563.37,272.31,564.39,272.93,565.82Z"/><path d="M303.3,598.47l7.77,18.34-20.24,8.24c-4.9-5.41-4.31-12.34-7.29-18.35Zm-3.6,11.16c-4.13.06-6,.87-8.06,3.45C295.63,613.17,297.54,612.35,299.7,609.63Z"/><path d="M231.5,627.56l21-8.55c2.58,6.17,5,11.89,7.64,18.26l-21,8.51C236,640,234.25,633.89,231.5,627.56ZM252.57,629c-5,0-10.44,2.24-12.76,4.93C243.39,634,247.32,632.52,252.57,629Z"/><path d="M411,549c-2.14-6-4-11.22-6-16.94L429,521.63c1.76,5.78,3.4,11.19,5.13,16.89Zm13-14.74c-.62-.67-1.16-1.59-1.44-1.51-2.63.7-5.24,1.48-7.79,2.42-1.6.6-2.08,1.73-.34,3.57C417.4,537.29,421,537,424,534.27Z"/><path d="M174,589.2c2.78,6.76,5.33,12.95,8.13,19.78l-18.79,7.79-8.65-20.14Zm-3.69,15.53c-1.78-3.82-1.78-3.82-6-1.17C165.59,607.26,165.59,607.26,170.26,604.73Z"/><path d="M151.26,686.43l6.87,19.48c-2.6,1.27-4.85,2.51-7.22,3.47-3.56,1.45-7.18,2.73-10.79,4-4,1.42-6.27.47-8-3.41-1.18-2.71-2.27-5.48-3.22-8.28-1.52-4.46-.49-7,3.93-8.68C138.71,690.75,144.65,688.78,151.26,686.43Zm-12.91,23.06,12.66-6c-.93-2.77-1.73-5.13-2.71-8l-13,5.1C136.33,703.64,137.22,706.2,138.35,709.49Z"/><path d="M426.21,600.71c-2.11-6.55-4.11-12.77-6.29-19.57l5.17-2.27c3.82-1.68,7.61-3.42,11.47-5a22.81,22.81,0,0,1,5.46-1.55c2.05-.27,3.08.89,3.37,3,.6,4.46,1.38,8.9,2.15,13.34.73,4.25.11,5-4.14,5.82a14.59,14.59,0,0,0-4.26,1.69C435.31,598.28,431.43,600.16,426.21,600.71Zm1.83-8.88c4.24-1.44,8-2.58,11.66-4.07a3.67,3.67,0,0,0,1.59-2.85c0-1.6-.58-3.21-1.09-5.59l-13.85,5.11C427,587.12,427.44,589.23,428,591.83Z"/><path d="M366,595.07c-2-6.8-3.88-12.87-5.83-19.36l19.41-7.87,6.94,18.71Zm.94-13.21.3,1.07c4.66-.2,8.13-1.77,10.05-5.24Z"/><path d="M129.52,606.33l19.27-7.55c3.69,6.23,5.85,12.69,8,19.94l-20.26,7.16C133.4,619.76,132.13,613.12,129.52,606.33Zm19.35,6.92c-1.35-1.46-2.28-3-2.79-2.92-3,.75-5.83,1.9-9.06,3,.74,1.54,1.22,2.55,1.82,3.82Z"/><path d="M175.62,649.35l20-7.79c2.69,6,5.27,11.78,8.18,18.26l-20,7.93Zm17.85,4.38-.13-1.62c-3.29-1.46-6,1.22-8.89,2.21-.59.2-.78,1.62-1.65,3.62Z"/><path d="M315.38,534.64l19.15-7.25,7,19.34-18.23,7.86C319.8,548.11,317.75,541.6,315.38,534.64Zm10.9,10.82,6.76-2.64c-.71-1.58-1.23-2.72-1.72-3.82C324.69,541,324.69,541,326.28,545.46Z"/><path d="M230.34,567.39l7.79,19.92-19.33,7.5-8.51-19.6Zm-2.57,11.13-12,4.88c2,1.36,3.19,2.78,4,2.58,3.24-.87,6.35-2.21,9.78-3.47C228.84,581,228.45,580.07,227.77,578.52Z"/><path d="M172.77,641.65c-3.13-6.49-6.51-12.18-7.13-19.6l19.2-6.5c2.48,6,4.82,11.69,7.45,18.05Zm9.11-12-2.76-4.8-5.83,2.5,2.06,4.83Z"/><path d="M390.22,593.65l5.41,16.81c-8.7,4-16.84,7.83-25,11.5-2.78,1.24-4.94.53-5.95-2.15a63.44,63.44,0,0,1-2.88-10.52,3.94,3.94,0,0,1,1.61-3.33C372.08,601.81,380.91,597.88,390.22,593.65Zm-3.39,7.57-19.55,7.42,2,8.79,19.89-9.35C388.24,605.38,387.53,603.3,386.83,601.22Z"/><path d="M334.76,585.85l17.86-7.54,8,18.76-18.95,7.51C339.26,598.06,337.07,592.11,334.76,585.85Zm14.37,4.33c-4.7-.29-6.23.53-6.6,3.85C344.76,592.54,347.52,592.8,349.13,590.18Z"/><path d="M387.85,506.72l6.94,20c-5.46,3.14-11.61,4.17-17.68,6.89l-6.9-20Zm-6.26,17.44c2.08-.83,4.78-.67,3.9-3.88-.52-1.87-2-1.57-3.37-1C379.5,520.36,379.93,522,381.59,524.16Z"/><path d="M334.83,607.45,315.89,615c-2.39-6.57-4.6-12.66-7-19.19l18.95-6.89C330.19,595.13,332.42,601.06,334.83,607.45Zm-16.93-4.72a12.76,12.76,0,0,0,9.26-3.61C322.79,599.12,321.62,599.54,317.9,602.73Z"/><path d="M245.53,583.63l-8.93-18.44,19-7.67c2.72,6.47,5.24,12.48,8.06,19.23Zm.75-11.64c1.85,4,4.1,3.89,7.81-.18C251.89,568.88,251.89,568.88,246.28,572Z"/><path d="M285,627.33l-17.24,6.94c-2.67-5.85-5.29-11.57-8.21-17.92l17.53-7.3C279.84,615.15,284.39,619.92,285,627.33Zm-11-5.86c-.18-.61-.35-1.22-.53-1.83a6.79,6.79,0,0,0-6.83,4.37Z"/><path d="M388.18,563.93,405.06,557,412,576.26a136,136,0,0,1-17.25,6.9Zm6,7.12c.14.46.29.91.43,1.37,2.59,0,4.95-.59,6.15-3.87Z"/><path d="M351.43,552.69l20.51-8.28,6.27,16.84-20.87,8C355.44,564,353.61,558.8,351.43,552.69Zm8.74,6.75c8-1.85,8.67-2.32,7.86-5.71-4.62.6-8.07,1.88-8.59,3.51C359.24,557.84,359.91,558.72,360.17,559.44Z"/><path d="M300.24,591.39l-20.09,7.46c-2.06-5.4-4.07-10.67-6.31-16.56l20.93-7.86Zm-19-4.81c.41,2.44,1.06,3.72,3.15,3a17.9,17.9,0,0,0,4.25-1.74c.73-.51.93-1.8,1.36-2.73-1-.33-2.14-1.11-3-.88A41.13,41.13,0,0,0,281.2,586.58Z"/><path d="M319.09,564.84c2.27,5.93,4.22,11,6.25,16.36l-18.55,8.25-8.18-16.91Zm-2.44,12c-.5-2.69-1.5-3.7-3.37-2.8a47.16,47.16,0,0,0-4.52,2.81c.71.75,1.58,2.24,2.11,2.13A37.23,37.23,0,0,0,316.65,576.88Z"/><path d="M397.89,534.36l5.65,17.85-17.8,6.67c-2-5.84-3.91-11.34-5.94-17.26ZM388,546.14c1.33,3.34,3.15,1.74,4.65.94a2.18,2.18,0,0,0,.63-2.06c-1.21-1.79-2.66-.62-4,0A7.06,7.06,0,0,0,388,546.14Z"/><path d="M344.92,555.44c2.08,5.75,3.95,10.91,6.06,16.72L332.65,579c-3.17-5.17-4.73-10.73-6.44-16.91Zm-5,8.69c-6.89,1.86-6.89,1.86-4.93,5.4C341,567.86,341,567.86,340,564.13Z"/><path d="M401.17,609.25c-2-6.18-3.79-11.88-5.79-18.11l18.2-8.14a53.53,53.53,0,0,1,5.76,16.51c.37,2-.09,3.76-2.43,4.51C412,605.6,407.05,607.29,401.17,609.25Zm2.46-6.84,8.71-3.25c-1-2.82-1.79-5.2-2.7-7.81l-8.39,3.13C402.06,597.18,402.73,599.44,403.63,602.41Z"/><path d="M241.8,595l6.88,15.15c-6.59,3.32-13.21,5.64-20.39,8.42l-6.71-16.11Zm-2.1,12c-1.52-4.08-1.53-4.12-4.54-3.07-2.11.73-4.18,1.59-6.24,2.46-.43.18-.75.67-1.33,1.21.59,1.11,1.19,2.23,1.91,3.6C233.13,609.68,236.42,608.32,239.7,607Z"/><path d="M249.18,592.49l18.3-7.48,6.76,15.71c-5.63,3.84-11.82,4.92-18.25,7C253.24,603.16,251.54,598.14,249.18,592.49Zm8,7.82,6.77-2.82c-1.61-4-1.61-4-5.29-2.46C255.47,596.36,255.47,596.36,257.15,600.31Z"/><path class="cls-1" d="M230,667.54a12.24,12.24,0,0,0-2.38,1.75c1.8,2.83,3.63,1.07,5.14.43q24.54-10.43,49.05-20.92l7.71-5Q259.75,655.63,230,667.54Z"/><path class="cls-2" d="M360.74,619.51c-.55-2.37-1.18-4.75-1.95-7.06-1.44-4.29-3.66-5.28-8.1-3.75-1,.34-1.95.76-2.92,1.15q-34.15,14-68.29,28c-3.82,1.58-4.91,1.94-10.25,4.27-.56.24-2.21,1-4.6,2.16-4.52,2.13-7,2.56-11.26,4.45-10.2,4.54-20.28,9.34-30.42,14-2.9,1.33-5.07,3.12-4.85,8,.72,1.68,1.76,4.64,3.23,7.38,1.8,3.35,3.65,4,7.42,3a63.15,63.15,0,0,0,7.4-2.62q59.52-25.25,119-50.55a23.21,23.21,0,0,0,2.38-1.09C360.88,625,361.64,623.3,360.74,619.51Zm-79,29.31,0,0q-24.51,10.49-49.05,20.92c-1.51.64-3.34,2.4-5.14-.43a12.24,12.24,0,0,1,2.38-1.75q29.75-11.94,59.52-23.79l.08,0,59.46-25.87a1,1,0,0,1,1.28.56l.34,1a1,1,0,0,1-.53,1.21Z"/></svg>