<?xml version="1.0" encoding="utf-8"?>
<!-- Generator: Adobe Illustrator 24.1.1, SVG Export Plug-In . SVG Version: 6.00 Build 0)  -->
<svg version="1.1" id="Layer_1" xmlns="http://www.w3.org/2000/svg" xmlns:xlink="http://www.w3.org/1999/xlink" x="0px" y="0px"
	 viewBox="0 0 512 512" style="enable-background:new 0 0 512 512;" xml:space="preserve">
<style type="text/css">
	.st0{fill:#FFC24A;}
	.st1{fill-rule:evenodd;clip-rule:evenodd;fill:#FFA712;}
	.st2{fill:#F4BD62;}
	.st3{fill-rule:evenodd;clip-rule:evenodd;fill:#FFA50E;}
	.st4{fill:#F6820C;}
	.st5{fill:#FDE068;}
	.st6{fill:#FCCA3F;}
	.st7{fill:#EEAB37;}
</style>
<g>
	<path class="st0" d="M69.5,413.3l3.1-4.3l146.6-278.2l0.3-2.9L154.9,6.4c-5.4-10.2-20.7-7.6-22.4,3.8L69.5,413.3z"/>
	<path class="st1" d="M71.3,410l2.3-4.6l145.1-275.3L154.3,8.2c-5.4-10.1-19-7.5-20.7,3.8L71.3,410z"/>
	<path d="M71.3,410l2.3-4.6l145.1-275.3L154.3,8.2c-5.4-10.1-19-7.5-20.7,3.8L71.3,410z"/>
	<path class="st2" d="M266.7,219.6l48.1-49.3l-48.1-91.9c-4.6-8.7-17.3-8.7-21.9,0l-25.7,49.1v4.2L266.7,219.6z"/>
	<path class="st3" d="M265.8,217.6l46.8-47.9l-46.8-89.1c-4.4-8.5-15.2-9.3-19.6-0.9l-25.9,49.8l-0.8,2.5L265.8,217.6z"/>
	<path d="M265.8,217.6l46.8-47.9l-46.8-89.1c-4.4-8.5-15.2-9.3-19.6-0.9l-25.9,49.8l-0.8,2.5L265.8,217.6z"/>
	<polygon class="st4" points="69.5,413.3 70.9,411.9 76,409.8 263.6,222.9 266,216.4 219.2,127.2 	"/>
	<path class="st5" d="M272.7,507.5l169.8-94.7L394,114.2c-1.5-9.3-13-13-19.7-6.3L69.5,413.3l168.8,94.3
		C249,513.5,262,513.5,272.7,507.5"/>
	<path class="st6" d="M441,412l-48.1-296.4c-1.5-9.3-11-13.1-17.7-6.5L71.4,412.7l167,93.3c10.6,5.9,23.5,5.9,34.1,0L441,412z"/>
	<path class="st7" d="M272.7,504.7c-10.7,6-23.7,5.9-34.3,0L70.9,411.8l-1.4,1.4l168.8,94.3c10.7,6,23.7,6,34.3,0l169.8-94.7
		l-0.4-2.6L272.7,504.7z"/>
</g>
</svg>
