<svg id="Calque_1" data-name="Calque 1" xmlns="http://www.w3.org/2000/svg" viewBox="0 0 309.17 190.02"><path d="M156.86,58.8v1.41a1.64,1.64,0,0,0-.83,0,1.61,1.61,0,0,0-.5.51,2.26,2.26,0,0,0-.27,1.27V86.54h.06v1.15a11.81,11.81,0,0,1-.06,1.21v1a2.65,2.65,0,0,1,0,.5,30,30,0,0,1-.51,4.38,9.86,9.86,0,0,1-1.27,3.37,7,7,0,0,1-2.34,2.31,8.88,8.88,0,0,1-3.75,1.12,7.93,7.93,0,0,1-4.05-.74,7.34,7.34,0,0,1-2.72-2.28,8.45,8.45,0,0,1-1.45-3.13,9,9,0,0,1-.24-3.22,4.51,4.51,0,0,1,1.06-2.52,2.94,2.94,0,0,1,2.31-1,3.05,3.05,0,0,1,2.16.85,2.89,2.89,0,0,1,.27,3.94,3.37,3.37,0,0,1-1.6,1.06.67.67,0,0,1-.3.06,1.43,1.43,0,0,0-1.06,1.3,3.42,3.42,0,0,0,.47,2.07,5,5,0,0,0,1.86,1.81,4.33,4.33,0,0,0,3,.44,4.19,4.19,0,0,0,2-.89,4.82,4.82,0,0,0,1.25-1.62,8.38,8.38,0,0,0,.68-2.22c.13-.83.24-1.7.32-2.6V62a2.36,2.36,0,0,0-.26-1.27,1.34,1.34,0,0,0-.57-.51,1.22,1.22,0,0,0-.71,0V58.8Z"/><path d="M176.32,94.88v6.21h-16.5V99.55a.73.73,0,0,0,.71,0,1,1,0,0,0,.56-.44,2.16,2.16,0,0,0,.27-1.22V62a2.26,2.26,0,0,0-.27-1.27,1.32,1.32,0,0,0-.56-.51,1.2,1.2,0,0,0-.71,0V58.8h16.5V65h-1.54a10.76,10.76,0,0,0-.35-2.43,5,5,0,0,0-1-1.68,2.28,2.28,0,0,0-1.86-.8h-6.15V79.26h4.14a1.61,1.61,0,0,0,1.18-.41,2.27,2.27,0,0,0,.59-.95,4.21,4.21,0,0,0,.24-1.48H173V83.7h-1.36a3.77,3.77,0,0,0-.24-1.42,2.51,2.51,0,0,0-.59-1,1.55,1.55,0,0,0-1.18-.44h-4.14V99.67h6.15a2.46,2.46,0,0,0,1.86-.71,4.12,4.12,0,0,0,1-1.66,10.66,10.66,0,0,0,.35-2.42Z"/><path d="M196.91,99.91a1.48,1.48,0,0,0,.65-.12l.47-.24v1.3a4.13,4.13,0,0,1-.89.56,3.12,3.12,0,0,1-1.42.27,4.36,4.36,0,0,1-1.53-.29,4.08,4.08,0,0,1-1.42-1,5.26,5.26,0,0,1-1.1-1.69,7.37,7.37,0,0,1-.5-2.57v-9.7a5.15,5.15,0,0,0-.36-2.1,2.89,2.89,0,0,0-.91-1.21,3.24,3.24,0,0,0-1.22-.57c-.43-.09-.82-.16-1.18-.2h-2.42V97.89a2.39,2.39,0,0,0,.23,1.22.92.92,0,0,0,.48.44.87.87,0,0,0,.77,0v1.54h-7.1V99.55a.74.74,0,0,0,.71,0,1,1,0,0,0,.56-.44,2.16,2.16,0,0,0,.27-1.22v-36a2.28,2.28,0,0,0-.27-1.24,1.31,1.31,0,0,0-.56-.53,2.1,2.1,0,0,0-.71,0V58.74h8.46a9.44,9.44,0,0,1,3.87.74,8.54,8.54,0,0,1,2.81,1.92,7.83,7.83,0,0,1,1.69,2.72,9.31,9.31,0,0,1,.56,3.19v6.45a9.35,9.35,0,0,1-1.19,4.5A7.22,7.22,0,0,1,192,81.51a5.12,5.12,0,0,1,3.37,5.21v9.46a14.13,14.13,0,0,0,.21,2.63A1.22,1.22,0,0,0,196.91,99.91Zm-11.83-39.7V80.74h3.19a3.33,3.33,0,0,0,1.27-.32,4.84,4.84,0,0,0,1.42-1,6.15,6.15,0,0,0,1.19-1.77,6.38,6.38,0,0,0,.5-2.64V66a6.2,6.2,0,0,0-.5-2.57A6.85,6.85,0,0,0,191,61.63a5.06,5.06,0,0,0-1.42-1.06,3,3,0,0,0-1.27-.36Z"/><path d="M217.55,94.88v6.21h-16.5V99.55a.73.73,0,0,0,.71,0,1,1,0,0,0,.56-.44,2.17,2.17,0,0,0,.26-1.22V62a2.27,2.27,0,0,0-.26-1.27,1.38,1.38,0,0,0-.56-.51,1.2,1.2,0,0,0-.71,0V58.8h16.5V65H216a11.35,11.35,0,0,0-.35-2.43,5.16,5.16,0,0,0-1-1.68,2.28,2.28,0,0,0-1.86-.8h-6.15V79.26h4.14a1.63,1.63,0,0,0,1.18-.41,2.37,2.37,0,0,0,.59-.95,4.21,4.21,0,0,0,.24-1.48h1.36V83.7h-1.36a3.77,3.77,0,0,0-.24-1.42,2.63,2.63,0,0,0-.59-1,1.56,1.56,0,0,0-1.18-.44h-4.14V99.67h6.15a2.46,2.46,0,0,0,1.86-.71,4.23,4.23,0,0,0,1-1.66,11.25,11.25,0,0,0,.35-2.42Z"/><path d="M244.05,60.21a1.66,1.66,0,0,0-.83,0,1.31,1.31,0,0,0-.47.51,2.49,2.49,0,0,0-.24,1.27v35.9a2.38,2.38,0,0,0,.24,1.22.91.91,0,0,0,.47.44,1,1,0,0,0,.83,0v1.54h-7.16V99.55a.73.73,0,0,0,.71,0,1.05,1.05,0,0,0,.59-.44,2,2,0,0,0,.3-1.22V65.42q-1.55,6.15-2.78,11.06c-.36,1.38-.69,2.74-1,4.08s-.61,2.55-.88,3.61-.5,1.93-.65,2.6-.24,1-.24,1.07h-2.49c-.23-.91-.51-1.94-.82-3.11s-.63-2.36-1-3.6-.63-2.48-.95-3.7-.61-2.43-.88-3.61q-1.07-4.14-2.13-8.4V97.84a2.82,2.82,0,0,0,.2,1.21.77.77,0,0,0,.51.44.87.87,0,0,0,.77,0v1.6h-5v-1.6a.73.73,0,0,0,.71,0,1,1,0,0,0,.56-.44,2.15,2.15,0,0,0,.27-1.21V62a2.26,2.26,0,0,0-.27-1.27,1.38,1.38,0,0,0-.56-.51,1.2,1.2,0,0,0-.71,0V58.8H227l5.92,22.41,5.62-22.41h5.56Z"/><path d="M268.18,58.8v1.41a1.51,1.51,0,0,0-1.59.51,3.37,3.37,0,0,0-.65,1.27c0,.08-.23.81-.68,2.19s-1,3.15-1.72,5.32-1.46,4.57-2.31,7.19-1.68,5.21-2.51,7.78V97.89a2.38,2.38,0,0,0,.24,1.22,1,1,0,0,0,1.24.44v1.54h-7.1V99.55a1.31,1.31,0,0,0,.41.06,1.43,1.43,0,0,0,.39-.06.87.87,0,0,0,.38-.24,2.47,2.47,0,0,0,.3-1.42V84.53q-.95-3.86-2-7.81c-.67-2.64-1.3-5-1.87-7.22s-1-4-1.42-5.35-.56-2.12-.56-2.16a2.43,2.43,0,0,0-.56-1.27,2,2,0,0,0-.74-.51,2.17,2.17,0,0,0-.95,0V58.8H254v1.41a1.19,1.19,0,0,0-.71,0,.83.83,0,0,0-.45.51,2.24,2.24,0,0,0,.09,1.27s.15.61.45,1.72.67,2.55,1.12,4.34,1,3.83,1.54,6.1L257.77,81q1.13-3.5,2.25-6.89t2-6.1c.57-1.79,1.05-3.24,1.42-4.34S264,62,264,62a2.32,2.32,0,0,0,.18-1.27.75.75,0,0,0-.41-.51,1.2,1.2,0,0,0-.71,0V58.8Z"/><path d="M163.07,115.42a1.66,1.66,0,0,0-.83,0,1.39,1.39,0,0,0-.47.51,2.49,2.49,0,0,0-.24,1.27v35.9a2.38,2.38,0,0,0,.24,1.22.94.94,0,0,0,.47.44,1,1,0,0,0,.83,0v1.54h-7.16v-1.54a.73.73,0,0,0,.71,0,1.11,1.11,0,0,0,.6-.44,2.07,2.07,0,0,0,.29-1.22V120.63q-1.53,6.15-2.78,11.06c-.35,1.38-.69,2.74-1,4.08s-.62,2.55-.89,3.61-.49,1.93-.65,2.6-.24,1-.24,1.07h-2.48c-.24-.91-.52-1.94-.83-3.11s-.63-2.36-.95-3.61-.63-2.47-.94-3.69-.62-2.43-.89-3.61q-1.06-4.14-2.13-8.4V153a2.67,2.67,0,0,0,.21,1.22.76.76,0,0,0,.5.44.87.87,0,0,0,.77,0v1.6h-5v-1.6a.73.73,0,0,0,.71,0,.94.94,0,0,0,.56-.44,2.16,2.16,0,0,0,.27-1.22V117.2a2.26,2.26,0,0,0-.27-1.27,1.26,1.26,0,0,0-.56-.51,1.19,1.19,0,0,0-.71,0V114H146l5.91,22.42L157.51,114h5.56Z"/><path d="M184.43,153.16a1.94,1.94,0,0,0,.5,1.19,2,2,0,0,0,.86.47,2.36,2.36,0,0,0,1.06,0v1.48h-8.69v-1.48a1.86,1.86,0,0,0,.94,0,1.25,1.25,0,0,0,.54-.47,1.83,1.83,0,0,0,.11-1.19c0-.08-.11-.78-.32-2.1s-.49-3.06-.8-5.23h-7.57c-.4,2.17-.7,3.91-.92,5.23s-.32,2-.32,2.1a1.75,1.75,0,0,0,0,1.19,1,1,0,0,0,.5.47,1.84,1.84,0,0,0,.94,0v1.48h-5.67v-1.48a2.37,2.37,0,0,0,1.06,0,2,2,0,0,0,.86-.47,2.28,2.28,0,0,0,.56-1.19s.1-.62.3-1.74.46-2.6.79-4.44.72-3.91,1.16-6.24.87-4.71,1.3-7.16l3.55-19.4h3q1.71,10.83,3.07,19.34c.4,2.45.77,4.84,1.13,7.16s.68,4.41,1,6.24.54,3.33.74,4.47S184.43,153.12,184.43,153.16Zm-13.14-8.87h7.16c-.23-1.62-.5-3.35-.8-5.21s-.59-3.71-.88-5.59-.6-3.69-.89-5.47-.56-3.41-.8-4.91c-.32,1.5-.63,3.14-1,4.91s-.64,3.6-1,5.47-.66,3.74-1,5.59S171.57,142.67,171.29,144.29Z"/><path d="M206.19,155.12a1.42,1.42,0,0,0,.65-.12l.48-.24v1.3a4.13,4.13,0,0,1-.89.56,3.15,3.15,0,0,1-1.42.27,4.26,4.26,0,0,1-1.54-.3,4.09,4.09,0,0,1-1.42-.94A5.36,5.36,0,0,1,201,154a7.2,7.2,0,0,1-.5-2.57v-9.7a5.15,5.15,0,0,0-.36-2.1,2.83,2.83,0,0,0-.92-1.21,3.13,3.13,0,0,0-1.21-.57,10.4,10.4,0,0,0-1.18-.2h-2.43V153.1a2.38,2.38,0,0,0,.24,1.22.94.94,0,0,0,.47.44.87.87,0,0,0,.77,0v1.54h-7.1v-1.54a.74.74,0,0,0,.71,0,1,1,0,0,0,.57-.44,2.26,2.26,0,0,0,.26-1.22v-36a2.39,2.39,0,0,0-.26-1.24,1.31,1.31,0,0,0-.57-.54,2.79,2.79,0,0,0-.71,0v-1.42h8.46a9.66,9.66,0,0,1,3.88.74,8.71,8.71,0,0,1,2.81,1.93,7.66,7.66,0,0,1,1.68,2.72,9.09,9.09,0,0,1,.57,3.19V129a9.35,9.35,0,0,1-1.19,4.5,7.29,7.29,0,0,1-3.67,3.25,5.12,5.12,0,0,1,3.38,5.2v9.47a14.29,14.29,0,0,0,.2,2.63A1.22,1.22,0,0,0,206.19,155.12Zm-11.83-39.7V136h3.2a3.23,3.23,0,0,0,1.27-.33,4.62,4.62,0,0,0,1.42-1,6,6,0,0,0,1.18-1.78,6.17,6.17,0,0,0,.51-2.63v-9a6,6,0,0,0-.51-2.57,6.59,6.59,0,0,0-1.18-1.81,5.06,5.06,0,0,0-1.42-1.06,3,3,0,0,0-1.27-.36Z"/><path d="M228.14,114v6.27H226.6a11.56,11.56,0,0,0-.35-2.48,5.31,5.31,0,0,0-1-1.69,2.31,2.31,0,0,0-1.86-.79H221V153.1a2.38,2.38,0,0,0,.24,1.22.87.87,0,0,0,.53.44.74.74,0,0,0,.71,0v1.54H215.3v-1.54a.86.86,0,0,0,.77,0,.94.94,0,0,0,.56-.44,2.16,2.16,0,0,0,.27-1.22V115.31h-2.48a2.32,2.32,0,0,0-1.9.79,4.5,4.5,0,0,0-.88,1.69,9,9,0,0,0-.42,2.48h-1.6V114Z"/><path d="M235.77,153.1a2.16,2.16,0,0,0,.27,1.22,1,1,0,0,0,.5.44.86.86,0,0,0,.77,0v1.54h-7.16v-1.54a1,1,0,0,0,.83,0c.12,0,.26-.19.44-.44a2.16,2.16,0,0,0,.27-1.22V117.2a2.26,2.26,0,0,0-.27-1.27,2,2,0,0,0-.44-.51,1.66,1.66,0,0,0-.83,0V114h7.16v1.42a1,1,0,0,0-1.27.51,2.26,2.26,0,0,0-.27,1.27Z"/><path d="M254.82,114.06H260v1.48a1.67,1.67,0,0,0-.89,0,1.42,1.42,0,0,0-.56.5,2.19,2.19,0,0,0-.26,1.22v39h-5l-9.82-34V153.1a2.1,2.1,0,0,0,.26,1.19,1.43,1.43,0,0,0,.57.47,1.63,1.63,0,0,0,.88,0v1.54H240v-1.54a1.46,1.46,0,0,0,.83,0,1.71,1.71,0,0,0,.59-.47,1.92,1.92,0,0,0,.29-1.19V117.26a2.09,2.09,0,0,0-.29-1.22,1.62,1.62,0,0,0-.59-.5,1.46,1.46,0,0,0-.83,0v-1.48h6l10.47,36V117.26a2.09,2.09,0,0,0-.29-1.22,1.56,1.56,0,0,0-.6-.5,1.42,1.42,0,0,0-.82,0Z"/><path d="M58.15,116.53a13.39,13.39,0,0,1-1.25-1,53.6,53.6,0,0,1-9.67-12.35,8.66,8.66,0,0,1-.88-2.58c-.27-1.36.17-2,1.54-2.29A30.83,30.83,0,0,1,51.22,98c.42,0,.85,0,1.36,0,0-.5,0-.86,0-1.23a9.37,9.37,0,0,1,.5-4.3c.6-1.42,1.32-1.77,2.76-1.19,1.93.78,3.83,1.65,5.74,2.48l1.11.49c0-.63,0-1.1,0-1.56q-.26-11.14-.49-22.29c0-1.57-.3-2-1.81-2.39a23.23,23.23,0,0,0-7.53-.5,12.37,12.37,0,0,1-3-.09,4.82,4.82,0,0,1-3.72-6.63,7.56,7.56,0,0,1,3.59-4.06,18.84,18.84,0,0,1,7.66-2.12c.87-.08,1.75-.1,2.62-.21A5.43,5.43,0,0,0,61.5,54c.32-.13.74-.47.75-.73a1.15,1.15,0,0,0-.63-.87,12.77,12.77,0,0,0-2.35-.72,18.79,18.79,0,0,0-6.52.13c-2,.29-4,.49-6.07.71a11.45,11.45,0,0,1-1.17.05c-3.28,0-5.11-2.3-4.36-5.51a7.82,7.82,0,0,1,3.59-4.94,17.17,17.17,0,0,1,7.49-2.66,22.77,22.77,0,0,1,12.53,1.78,19,19,0,0,0,2.32.86,1.42,1.42,0,0,0,1.63-.23c.51-.58.19-1.19-.1-1.76s-.6-1-.84-1.53c-1.06-2.25,0-4.16,2.45-4.41a8.41,8.41,0,0,1,2.6.16,22.5,22.5,0,0,1,8.26,3.51,59.19,59.19,0,0,1,9.27,8c2.2,2.33,4.31,4.75,6.46,7.12a4.54,4.54,0,0,0,.83.81c.87.58,1.43.37,1.74-.62.22-.69.37-1.41.64-2.08a2.85,2.85,0,0,1,2.5-2,2.54,2.54,0,0,1,2.5,1.47,23.35,23.35,0,0,1,1.43,3.33c.54,1.51,1,3,1.46,4.58a1.42,1.42,0,0,0,1.35,1.08c1.54.23,3.07.53,4.58.88a15.69,15.69,0,0,1,2.46.88,3.68,3.68,0,0,1,2.44,3.59c.12,3.29.53,6.58.77,9.87.21,2.91.36,5.82.49,8.73.08,1.68,0,1.66,1.72,2.1a38.07,38.07,0,0,1,4.61,1.34,23,23,0,0,1,4.07,2.22,6.37,6.37,0,0,1,2.85,5.61,16,16,0,0,1-2.5,9c-2.24,3.41-4.51,6.81-6.69,10.25-1.14,1.81-2.15,3.7-3.15,5.58a3.85,3.85,0,0,0-.36,1.68c0,1.41,0,2.82,0,4.23a2.45,2.45,0,0,1-1.61,2.77,1.6,1.6,0,0,0-.49.32c-3.56,3.06-7.83,4.62-12.25,5.87l-1.54.44s-.08.06-.22.17c-.71,4.22-3.68,7-7,9.72.73,1.36,1.42,2.67,2.17,4.09l1.59-.39a16.59,16.59,0,0,1,8.65,0,9.56,9.56,0,0,1,4.57,2.73,7.47,7.47,0,0,1,1.89,4.78,1.85,1.85,0,0,1-1,1.93,18.35,18.35,0,0,1-2.79,1.26,49.73,49.73,0,0,1-16.4,2.11,4.78,4.78,0,0,1-4.89-4c-.28-1.17-.3-2.4-.48-3.59a6,6,0,0,0-.4-1.65c-.43-.92-1-1.78-1.53-2.8l-2.76,1.64a4.4,4.4,0,0,0,.4.65c2.1,2.42,2.36,5.25,1.74,8.23a2.29,2.29,0,0,1-2.73,2c-2.76-.13-5.52-.33-8.28-.44a3.49,3.49,0,0,1-3.11-1.84,44.14,44.14,0,0,1-2.73-5.46,45.58,45.58,0,0,1-1.64-6A2.71,2.71,0,0,1,72,144.42a8.18,8.18,0,0,1,5.56.29,2.11,2.11,0,0,0,2.3-.15c1.58-1,3.22-1.95,5-3-.86-1.61-1.62-3.12-2.5-4.57-.19-.31-.81-.43-1.25-.51-2.72-.51-5.47-.86-8.16-1.49a17.79,17.79,0,0,1-8-3.93A23.44,23.44,0,0,1,63,128.94c-2.14.6-3.52-.7-4.61-2.56a6.3,6.3,0,0,1-.81-5.16,1.57,1.57,0,0,0,0-1A3.49,3.49,0,0,1,58.15,116.53Zm9.9,12.89-.1.29c.6.35,1.17.75,1.8,1a32.46,32.46,0,0,0,9.53,2.53A68,68,0,0,0,99,133a46.12,46.12,0,0,0,12.72-3.59,35.57,35.57,0,0,0,4.22-2.55A3,3,0,0,0,117.3,124c-.16-5.39-.23-10.78-.34-16.17q-.37-19-.76-38c0-.47-.07-.93-.11-1.51l-.8.25c-2.43.82-4.83,1.8-7.31,2.42a106.53,106.53,0,0,1-21.64,2.78,81.17,81.17,0,0,1-16.41-.77c-1.57-.25-3.12-.67-4.8-1,0,.61,0,1.13,0,1.65l.3,12.24c.08,3.11.16,6.21.23,9.32,0,.77.07,1.47,1.4,1.67a8.31,8.31,0,0,1,.84-1.13c.85-.86,1.72-1.71,2.65-2.48a1.45,1.45,0,0,1,2.1,0,1.5,1.5,0,0,1-.09,2,2.27,2.27,0,0,1-.39.43l-7.3,6.91c-.74.69-1.5,1.38-2.28,2a3.68,3.68,0,0,0-1.27,2.83,34.7,34.7,0,0,0,.88,8.41l1.88.73c-.23-2.42-.45-4.63-.63-6.85a4.68,4.68,0,0,1,1.35-3.85c2.61-2.68,5.19-5.39,7.79-8.07a4.17,4.17,0,0,1,1-.78,1.26,1.26,0,0,1,1.49.2,1.23,1.23,0,0,1,.29,1.59,7.3,7.3,0,0,1-1,1.26c-.53.61-1.09,1.2-1.84,2A16.87,16.87,0,0,1,74,103.13a55.23,55.23,0,0,1,7.75,9.81,41.07,41.07,0,0,1,5.38,12.68,11.34,11.34,0,0,1,.35,2.15,1.73,1.73,0,0,1-1.74,1.93,7.09,7.09,0,0,1-1.3-.07,40.25,40.25,0,0,1-9.31-2.29l-1.14-.4c-1,.91-1.66,2-2.65,2.4S69.16,129.42,68.05,129.42Zm16.36-2.76c-2.38-9.06-7.17-16.25-13.7-22.6-1.21,1.21-2.32,2.34-3.46,3.45a2.85,2.85,0,0,0-.84,2.38,55.85,55.85,0,0,0,1.45,9.63,2.31,2.31,0,0,0,1.41,1.71,19.6,19.6,0,0,1,2.35,1.14,33.24,33.24,0,0,0,10.16,3.86C82.53,126.4,83.29,126.48,84.41,126.66Zm28.93,29a4.12,4.12,0,0,0-1.69-3.11,8.09,8.09,0,0,0-3.59-1.52,16,16,0,0,0-7.6.7,2.55,2.55,0,0,1-3.38-1.44c-2.36-4.46-4.69-8.93-7.1-13.53a26.44,26.44,0,0,0-4.28.14c.32.62.56,1.09.81,1.55q3.27,6.1,6.54,12.19a6.07,6.07,0,0,1,.77,3.2,9.86,9.86,0,0,0,.45,3,2.51,2.51,0,0,0,1.12,1.23,3.42,3.42,0,0,0,1.55.25,49.29,49.29,0,0,0,14.24-1.84C111.87,156.31,112.53,156,113.34,155.7Zm-27.8,3a19.43,19.43,0,0,0,0-2.54c-.49-3.4-3.25-4.68-6.21-2.91a7.44,7.44,0,0,1-1.13.64,1.25,1.25,0,0,1-1.57-.37,1.31,1.31,0,0,1,0-1.63,3.23,3.23,0,0,1,.71-.72,7.67,7.67,0,0,1,4.12-1.65,3,3,0,0,0,1.14-.15c1.61-.87,3.19-1.79,4.91-2.77l-1.37-2.4c-1.78,1-3.42,2-5,2.93a4.61,4.61,0,0,1-4.69.29,4.8,4.8,0,0,0-3.63-.1,25.47,25.47,0,0,0,3.61,10.27,1.78,1.78,0,0,0,1.58.82C80.4,158.53,82.82,158.63,85.54,158.74ZM49.48,101.07c1.34,3.27,7.23,10.72,9.17,11.63a13.22,13.22,0,0,1-.14-1.47c0-1.7-.06-3.39,0-5.08a4.78,4.78,0,0,1,1.63-3.32L63.4,99.9c.3-.28.58-.59,1-1a36,36,0,0,0-8.87-4.53,13.9,13.9,0,0,0,0,2c.18,1,.44,2,.69,3a1.75,1.75,0,0,1-.36,1.89,1.52,1.52,0,0,1-1.76.12C52.64,100.73,51.15,101,49.48,101.07Zm70.94,12.6a4.89,4.89,0,0,0,.74-.68q3.65-5.53,7.25-11.09a13.07,13.07,0,0,0,1.88-6.65,4.33,4.33,0,0,0-2.18-4.14,18.07,18.07,0,0,0-6.06-2.41c-.59-.13-1.18-.22-1.78-.32-.31,3.13-.27,2.84,2,4.13.71.41,1.48.74,2.15,1.21A4,4,0,0,1,126,98.83a27,27,0,0,1-1.89,3.76c-.86,1.52-1.87,3-2.72,4.48a7.35,7.35,0,0,0-1,2.55A31.55,31.55,0,0,0,120.42,113.67Zm-26.59,24c.68,1.44,1.43,2.86,2.28,4.36,2.27-1.79,4.16-3.58,5.16-6.37-1.94.25-3.7.5-5.46.69A2.22,2.22,0,0,0,93.83,137.67Zm21.92-72.95c-1.19-1.27-4.58-2.29-6.44-2,.28,1.45.56,2.9.88,4.53A16.15,16.15,0,0,0,115.75,64.72Zm4.83,38.06c.7-1.18,1.34-2.18,1.9-3.22,1.45-2.71,1.09-3.56-1.86-4.5a1,1,0,0,0-.28,0A32.07,32.07,0,0,0,120.58,102.78Zm-50.42,23.8c.53-.89.57-1,0-1.35a27.69,27.69,0,0,0-2.75-1.31,1.08,1.08,0,0,0-.7.07,7.7,7.7,0,0,1-5.66-.35,3.62,3.62,0,0,0-.67-.13A3.08,3.08,0,0,0,62,125.94c.15-.1.32-.19.47-.31,1.26-1,1.7-1,2.8.17.28.3.6.56.88.82.21-.15.31-.18.36-.26,1.1-1.49,1.54-1.54,2.86-.36C69.61,126.21,69.89,126.38,70.16,126.58ZM65,121.19a4.92,4.92,0,0,0-3-2.26c-.54-.19-1.09-.39-1.59.1A4,4,0,0,0,65,121.19Z"/><path d="M99.61,41.4a1.64,1.64,0,0,1-2.36,1.67,6.33,6.33,0,0,1-1.16-.86Q93.29,40,90.47,37.84c-1.53-1.18-3.15-2.27-4.6-3.54A6.34,6.34,0,0,1,84.24,32c-.91-2.26.55-4,3-3.72a9.34,9.34,0,0,1,4.13,1.7,20.67,20.67,0,0,1,5.77,6.47c.78,1.28,1.46,2.63,2.15,4A6.38,6.38,0,0,1,99.61,41.4Z"/><path d="M97.62,113.88a13.33,13.33,0,0,1-10.28-6,6.22,6.22,0,0,1-.82-2,1.47,1.47,0,0,1,1-1.84,1.39,1.39,0,0,1,1.74,1c1,3.15,3.56,4.59,6.42,5.64a4.44,4.44,0,0,0,3.8-.12,1.39,1.39,0,0,1,2,.46,1.57,1.57,0,0,1-.58,2A5.19,5.19,0,0,1,97.62,113.88Z"/><path d="M108.34,94.33a5,5,0,0,1-3.93-1.6,2.67,2.67,0,0,1-.69-1.38A1.3,1.3,0,0,1,105.57,90a3,3,0,0,1,.73.47,3.17,3.17,0,0,0,4.44-.15c.39-.35.7-.8,1.06-1.19.73-.79,1.51-.94,2.17-.42a1.55,1.55,0,0,1,.16,2.22A7.17,7.17,0,0,1,108.34,94.33Z"/><path d="M92.51,96.76a16.06,16.06,0,0,1-2.6-.82,2.16,2.16,0,0,1-1.08-2.72,1.5,1.5,0,0,1,1.26-1.08,1.18,1.18,0,0,1,1.33.69,1.24,1.24,0,0,0,1.66.76c1.16-.3,2.3-.72,3.43-1.12.4-.15.76-.55,1.15-.57a2.27,2.27,0,0,1,1.44.4,1.13,1.13,0,0,1,.12,1.59A4.26,4.26,0,0,1,98.08,95,12.43,12.43,0,0,1,92.51,96.76Z"/></svg>