<svg id="Calque_1" data-name="Calque 1" xmlns="http://www.w3.org/2000/svg" viewBox="0 0 309.17 309.17"><path d="M152.83,118.06v1.41a1.64,1.64,0,0,0-.83,0,1.61,1.61,0,0,0-.5.51,2.27,2.27,0,0,0-.26,1.27V145.8h.06V147c0,.41,0,.82-.06,1.21v1a2,2,0,0,1-.06.5,30,30,0,0,1-.51,4.38,9.86,9.86,0,0,1-1.27,3.37,7,7,0,0,1-2.33,2.31,9,9,0,0,1-3.76,1.12,7.93,7.93,0,0,1-4.05-.74,7.42,7.42,0,0,1-2.72-2.28,8.61,8.61,0,0,1-1.45-3.13,9,9,0,0,1-.24-3.22,4.45,4.45,0,0,1,1.07-2.52,2.92,2.92,0,0,1,2.3-1,3.05,3.05,0,0,1,2.16.85,2.89,2.89,0,0,1,.27,3.94,3.37,3.37,0,0,1-1.6,1.06.67.67,0,0,1-.3.06,1.43,1.43,0,0,0-1.06,1.3,3.42,3.42,0,0,0,.47,2.07,4.94,4.94,0,0,0,1.87,1.81,4.58,4.58,0,0,0,4.94-.45,4.93,4.93,0,0,0,1.24-1.62,8.38,8.38,0,0,0,.68-2.22c.14-.83.24-1.7.32-2.6V121.25A2.36,2.36,0,0,0,147,120a1.34,1.34,0,0,0-.57-.51,1.18,1.18,0,0,0-.7,0v-1.41Z"/><path d="M172.29,154.14v6.21h-16.5v-1.54a.73.73,0,0,0,.71,0,1,1,0,0,0,.56-.44,2.16,2.16,0,0,0,.27-1.22v-35.9a2.26,2.26,0,0,0-.27-1.27,1.32,1.32,0,0,0-.56-.51,1.19,1.19,0,0,0-.71,0v-1.41h16.5v6.21h-1.53a10.73,10.73,0,0,0-.36-2.43,5.13,5.13,0,0,0-1-1.69,2.31,2.31,0,0,0-1.86-.79h-6.15v19.16h4.14a1.61,1.61,0,0,0,1.18-.41,2.4,2.4,0,0,0,.6-1,4.51,4.51,0,0,0,.23-1.48h1.36V143h-1.36a4,4,0,0,0-.23-1.42,2.58,2.58,0,0,0-.6-1,1.55,1.55,0,0,0-1.18-.44h-4.14v18.87h6.15a2.46,2.46,0,0,0,1.86-.71,4.12,4.12,0,0,0,1-1.66,10.64,10.64,0,0,0,.36-2.42Z"/><path d="M192.88,159.17a1.48,1.48,0,0,0,.65-.12l.47-.24v1.3a3.9,3.9,0,0,1-.89.56,3.1,3.1,0,0,1-1.41.27,4.18,4.18,0,0,1-1.54-.3,3.91,3.91,0,0,1-1.42-.94,5.38,5.38,0,0,1-1.1-1.69,7.42,7.42,0,0,1-.5-2.57v-9.7a5.34,5.34,0,0,0-.35-2.1,3,3,0,0,0-.92-1.21,3.27,3.27,0,0,0-1.21-.57c-.44-.09-.83-.16-1.19-.2h-2.42v15.49a2.51,2.51,0,0,0,.23,1.22.92.92,0,0,0,.48.44.87.87,0,0,0,.77,0v1.54h-7.1v-1.54a.74.74,0,0,0,.71,0,1,1,0,0,0,.56-.44,2.16,2.16,0,0,0,.27-1.22v-36a2.28,2.28,0,0,0-.27-1.24,1.25,1.25,0,0,0-.56-.53,2.1,2.1,0,0,0-.71,0V118h8.46a9.58,9.58,0,0,1,3.87.73,8.6,8.6,0,0,1,2.81,1.93,7.83,7.83,0,0,1,1.69,2.72,9.31,9.31,0,0,1,.56,3.19V133a9.45,9.45,0,0,1-1.18,4.5,7.29,7.29,0,0,1-3.67,3.25,5.12,5.12,0,0,1,3.37,5.2v9.47a14.21,14.21,0,0,0,.21,2.63A1.22,1.22,0,0,0,192.88,159.17Zm-11.83-39.7V140h3.19a3.18,3.18,0,0,0,1.27-.33,4.5,4.5,0,0,0,1.42-1,6.09,6.09,0,0,0,1.19-1.77,6.38,6.38,0,0,0,.5-2.64v-9a6.2,6.2,0,0,0-.5-2.57,6.61,6.61,0,0,0-1.19-1.81,4.92,4.92,0,0,0-1.42-1.06,3,3,0,0,0-1.27-.36Z"/><path d="M213.52,154.14v6.21H197v-1.54a.73.73,0,0,0,.71,0,1,1,0,0,0,.56-.44,2.16,2.16,0,0,0,.27-1.22v-35.9a2.26,2.26,0,0,0-.27-1.27,1.38,1.38,0,0,0-.56-.51,1.2,1.2,0,0,0-.71,0v-1.41h16.5v6.21H212a10.76,10.76,0,0,0-.35-2.43,5.13,5.13,0,0,0-1-1.69,2.31,2.31,0,0,0-1.86-.79h-6.15v19.16h4.14a1.63,1.63,0,0,0,1.18-.41,2.37,2.37,0,0,0,.59-1,4.25,4.25,0,0,0,.24-1.48h1.36V143h-1.36a3.77,3.77,0,0,0-.24-1.42,2.56,2.56,0,0,0-.59-1,1.56,1.56,0,0,0-1.18-.44h-4.14v18.87h6.15a2.46,2.46,0,0,0,1.86-.71,4.12,4.12,0,0,0,1-1.66,10.66,10.66,0,0,0,.35-2.42Z"/><path d="M240,119.47a1.66,1.66,0,0,0-.83,0,1.31,1.31,0,0,0-.47.51,2.49,2.49,0,0,0-.24,1.27v35.9a2.38,2.38,0,0,0,.24,1.22.91.91,0,0,0,.47.44,1,1,0,0,0,.83,0v1.54h-7.16v-1.54a.73.73,0,0,0,.71,0,1.05,1.05,0,0,0,.59-.44,2,2,0,0,0,.3-1.22V124.68q-1.54,6.15-2.78,11.06c-.35,1.38-.69,2.74-1,4.08s-.61,2.55-.88,3.61-.5,1.93-.65,2.6-.24,1-.24,1.07h-2.48c-.24-.91-.52-1.94-.83-3.11s-.63-2.36-1-3.61-.63-2.47-.94-3.69-.62-2.43-.89-3.61q-1.06-4.14-2.13-8.4V157.1a2.65,2.65,0,0,0,.21,1.21.73.73,0,0,0,.5.44.87.87,0,0,0,.77,0v1.6h-5v-1.6a.73.73,0,0,0,.71,0,.93.93,0,0,0,.56-.44,2.15,2.15,0,0,0,.27-1.21V121.25a2.26,2.26,0,0,0-.27-1.27,1.32,1.32,0,0,0-.56-.51,1.2,1.2,0,0,0-.71,0v-1.41h5.8l5.91,22.41,5.62-22.41H240Z"/><path d="M264.16,118.06v1.41a1.66,1.66,0,0,0-.83,0,1.63,1.63,0,0,0-.77.51,3.37,3.37,0,0,0-.65,1.27c0,.08-.23.81-.68,2.19s-1,3.15-1.72,5.32-1.46,4.57-2.31,7.19-1.68,5.21-2.51,7.78v13.42a2.38,2.38,0,0,0,.24,1.22,1,1,0,0,0,1.24.44v1.54h-7.1v-1.54a1.33,1.33,0,0,0,.42.06,1.42,1.42,0,0,0,.38-.06.82.82,0,0,0,.38-.24,2.47,2.47,0,0,0,.3-1.42V143.79q-.95-3.85-2-7.81t-1.87-7.22l-1.41-5.35q-.57-2.1-.57-2.16a2.43,2.43,0,0,0-.56-1.27,2,2,0,0,0-.74-.51,2.12,2.12,0,0,0-.94,0v-1.41H250v1.41a1.19,1.19,0,0,0-.71,0,.83.83,0,0,0-.45.51,2.44,2.44,0,0,0,.09,1.27s.15.61.45,1.71.67,2.56,1.12,4.35,1,3.83,1.54,6.09l1.74,6.9q1.13-3.5,2.25-6.9t2-6.09c.57-1.79,1-3.24,1.42-4.35s.56-1.67.56-1.71a2.32,2.32,0,0,0,.18-1.27.73.73,0,0,0-.41-.51,1.2,1.2,0,0,0-.71,0v-1.41Z"/><path d="M159,174.68a1.42,1.42,0,0,0-.82,0,1.32,1.32,0,0,0-.48.51,2.51,2.51,0,0,0-.23,1.27v35.9a2.39,2.39,0,0,0,.23,1.22.92.92,0,0,0,.48.44,1,1,0,0,0,.82,0v1.54h-7.15V214a.73.73,0,0,0,.71,0,1.12,1.12,0,0,0,.59-.44,2.07,2.07,0,0,0,.29-1.22V179.89Q152,186,150.7,191c-.35,1.38-.69,2.74-1,4.08s-.61,2.55-.89,3.61-.49,1.93-.65,2.6-.24,1-.24,1.07h-2.48c-.24-.91-.51-1.94-.83-3.11s-.63-2.36-1-3.61-.63-2.47-.94-3.69-.61-2.43-.89-3.61q-1.07-4.14-2.13-8.4V212.3a2.67,2.67,0,0,0,.21,1.22.78.78,0,0,0,.5.44.87.87,0,0,0,.77,0v1.6h-5V214a.73.73,0,0,0,.71,0,.94.94,0,0,0,.56-.44,2.16,2.16,0,0,0,.27-1.22V176.46a2.26,2.26,0,0,0-.27-1.27,1.26,1.26,0,0,0-.56-.51,1.05,1.05,0,0,0-.71,0v-1.42H142l5.91,22.42,5.62-22.42H159Z"/><path d="M180.4,212.42a1.94,1.94,0,0,0,.5,1.19,2,2,0,0,0,.86.47,2.36,2.36,0,0,0,1.06,0v1.48h-8.69v-1.48a1.86,1.86,0,0,0,.94,0,1.25,1.25,0,0,0,.54-.47,1.83,1.83,0,0,0,.11-1.19c0-.08-.1-.78-.32-2.1s-.48-3.06-.8-5.23H167c-.4,2.17-.7,3.91-.92,5.23s-.32,2-.32,2.1a1.75,1.75,0,0,0,0,1.19,1,1,0,0,0,.5.47,1.88,1.88,0,0,0,1,0v1.48h-5.68v-1.48a2.37,2.37,0,0,0,1.06,0,2,2,0,0,0,.86-.47,2.21,2.21,0,0,0,.56-1.19s.1-.62.3-1.74.46-2.6.8-4.44.71-3.91,1.15-6.24.87-4.71,1.3-7.16l3.55-19.4h3q1.71,10.83,3.07,19.34c.4,2.45.77,4.83,1.13,7.16s.68,4.41,1,6.24.54,3.32.74,4.47S180.4,212.38,180.4,212.42Zm-13.13-8.87h7.15c-.23-1.62-.5-3.35-.8-5.21s-.59-3.71-.88-5.59-.59-3.69-.89-5.47-.56-3.41-.8-4.91c-.31,1.5-.63,3.14-1,4.91s-.64,3.6-1,5.47-.66,3.74-1,5.59S167.54,201.93,167.27,203.55Z"/><path d="M202.17,214.37a1.49,1.49,0,0,0,.65-.11l.47-.24v1.3a4.13,4.13,0,0,1-.89.56,3.15,3.15,0,0,1-1.42.27,4.26,4.26,0,0,1-1.54-.3,4,4,0,0,1-1.41-.94,5.38,5.38,0,0,1-1.1-1.69,7.2,7.2,0,0,1-.5-2.57V201a5.15,5.15,0,0,0-.36-2.1,2.92,2.92,0,0,0-.91-1.22,3.38,3.38,0,0,0-1.22-.56,10,10,0,0,0-1.18-.2h-2.42v15.49a2.39,2.39,0,0,0,.23,1.22.92.92,0,0,0,.48.44.85.85,0,0,0,.76,0v1.54h-7.09V214a.74.74,0,0,0,.71,0,1,1,0,0,0,.56-.44,2.26,2.26,0,0,0,.26-1.22v-36a2.39,2.39,0,0,0-.26-1.24,1.34,1.34,0,0,0-.56-.54,2.8,2.8,0,0,0-.71,0V173.2h8.45a9.62,9.62,0,0,1,3.88.74,8.71,8.71,0,0,1,2.81,1.93,7.66,7.66,0,0,1,1.68,2.72,9.09,9.09,0,0,1,.57,3.19v6.45a9.29,9.29,0,0,1-1.19,4.49,7.28,7.28,0,0,1-3.66,3.26,5.13,5.13,0,0,1,3.37,5.2v9.47a15.23,15.23,0,0,0,.2,2.63A1.22,1.22,0,0,0,202.17,214.37Zm-11.83-39.69v20.53h3.19a3.23,3.23,0,0,0,1.27-.33,4.62,4.62,0,0,0,1.42-1,6,6,0,0,0,1.18-1.78,6.17,6.17,0,0,0,.51-2.63v-9a6,6,0,0,0-.51-2.57,6.59,6.59,0,0,0-1.18-1.81A4.87,4.87,0,0,0,194.8,175a3,3,0,0,0-1.27-.36Z"/><path d="M224.11,173.26v6.27h-1.54a11.56,11.56,0,0,0-.35-2.48,5.31,5.31,0,0,0-1-1.69,2.31,2.31,0,0,0-1.86-.79H217v37.79a2.38,2.38,0,0,0,.24,1.22.87.87,0,0,0,.53.44.74.74,0,0,0,.71,0v1.54h-7.16V214a.86.86,0,0,0,.77,0,.94.94,0,0,0,.56-.44,2.16,2.16,0,0,0,.27-1.22V174.57h-2.48a2.32,2.32,0,0,0-1.9.79,4.5,4.5,0,0,0-.88,1.69,9,9,0,0,0-.42,2.48H205.6v-6.27Z"/><path d="M231.74,212.36a2.16,2.16,0,0,0,.27,1.22,1,1,0,0,0,.5.44.86.86,0,0,0,.77,0v1.54h-7.16V214a1,1,0,0,0,.83,0,1.11,1.11,0,0,0,.44-.44,2.16,2.16,0,0,0,.27-1.22v-35.9a2.26,2.26,0,0,0-.27-1.27,1.85,1.85,0,0,0-.44-.51,1.46,1.46,0,0,0-.83,0v-1.42h7.16v1.42a1.25,1.25,0,0,0-.77,0,1.42,1.42,0,0,0-.5.51,2.26,2.26,0,0,0-.27,1.27Z"/><path d="M250.79,173.32H256v1.48a1.63,1.63,0,0,0-.88,0,1.37,1.37,0,0,0-.57.5,2.28,2.28,0,0,0-.26,1.22v39h-5l-9.82-34v30.76a2.1,2.1,0,0,0,.26,1.19,1.43,1.43,0,0,0,.57.47,1.63,1.63,0,0,0,.88,0v1.54H236V214a1.46,1.46,0,0,0,.83,0,1.71,1.71,0,0,0,.59-.47,1.86,1.86,0,0,0,.29-1.19V176.52a2,2,0,0,0-.29-1.22,1.62,1.62,0,0,0-.59-.5,1.46,1.46,0,0,0-.83,0v-1.48h6l10.47,36V176.52a2.09,2.09,0,0,0-.29-1.22,1.62,1.62,0,0,0-.59-.5,1.46,1.46,0,0,0-.83,0Z"/><path d="M54.12,175.79a14.86,14.86,0,0,1-1.25-1,53.6,53.6,0,0,1-9.67-12.35,9,9,0,0,1-.88-2.58c-.27-1.36.17-2,1.54-2.29a30.83,30.83,0,0,1,3.33-.37c.42,0,.85,0,1.36,0,0-.5,0-.86,0-1.23a9.37,9.37,0,0,1,.5-4.3c.6-1.42,1.33-1.77,2.76-1.19,1.93.78,3.83,1.65,5.74,2.48l1.11.49c0-.63,0-1.1,0-1.56q-.24-11.14-.49-22.3c0-1.56-.3-2-1.81-2.38a22.91,22.91,0,0,0-7.52-.5,12.34,12.34,0,0,1-3-.09A4.82,4.82,0,0,1,42.06,120,7.56,7.56,0,0,1,45.65,116a18.84,18.84,0,0,1,7.66-2.12c.87-.08,1.75-.1,2.62-.21a5.43,5.43,0,0,0,1.54-.38c.32-.13.74-.47.75-.74a1.16,1.16,0,0,0-.63-.86,12.77,12.77,0,0,0-2.35-.72,18.8,18.8,0,0,0-6.52.13c-2,.29-4,.48-6.07.71a11.45,11.45,0,0,1-1.17,0c-3.28,0-5.11-2.3-4.36-5.51a7.88,7.88,0,0,1,3.59-5,17.29,17.29,0,0,1,7.49-2.65,22.76,22.76,0,0,1,12.53,1.78,19,19,0,0,0,2.32.86,1.45,1.45,0,0,0,1.64-.23c.51-.58.18-1.19-.11-1.76s-.6-1-.84-1.53c-1.05-2.25,0-4.16,2.45-4.41a8.81,8.81,0,0,1,2.61.15,22.72,22.72,0,0,1,8.25,3.52,59.19,59.19,0,0,1,9.27,8c2.2,2.32,4.31,4.75,6.46,7.12a4.88,4.88,0,0,0,.83.81c.87.58,1.43.37,1.74-.62.22-.69.37-1.41.64-2.08a2.84,2.84,0,0,1,2.5-2,2.53,2.53,0,0,1,2.5,1.47,24.6,24.6,0,0,1,1.44,3.33c.54,1.51,1,3,1.45,4.58a1.42,1.42,0,0,0,1.36,1.08c1.53.23,3.06.53,4.57.88a15.69,15.69,0,0,1,2.46.88,3.68,3.68,0,0,1,2.44,3.59c.12,3.29.54,6.58.77,9.87.21,2.91.36,5.82.49,8.73.08,1.68,0,1.66,1.72,2.1a38.07,38.07,0,0,1,4.61,1.34,23,23,0,0,1,4.07,2.22,6.37,6.37,0,0,1,2.85,5.61,16,16,0,0,1-2.5,9c-2.24,3.41-4.51,6.8-6.69,10.25-1.14,1.81-2.15,3.7-3.15,5.58a4,4,0,0,0-.36,1.68c0,1.41,0,2.82,0,4.23a2.45,2.45,0,0,1-1.61,2.77,1.6,1.6,0,0,0-.49.32c-3.56,3.06-7.83,4.62-12.25,5.87l-1.54.44s-.08.06-.22.17c-.71,4.22-3.68,7-7,9.72l2.16,4.09,1.59-.39a16.59,16.59,0,0,1,8.65,0,9.56,9.56,0,0,1,4.57,2.73,7.53,7.53,0,0,1,1.9,4.78,1.87,1.87,0,0,1-1,1.93,18.35,18.35,0,0,1-2.79,1.26,50,50,0,0,1-16.4,2.11,4.76,4.76,0,0,1-4.88-4c-.28-1.17-.31-2.4-.49-3.59a6,6,0,0,0-.4-1.65c-.43-.92-1-1.78-1.53-2.8l-2.75,1.64a4.44,4.44,0,0,0,.39.65c2.1,2.42,2.36,5.25,1.74,8.23a2.29,2.29,0,0,1-2.73,2c-2.76-.13-5.52-.33-8.28-.44a3.47,3.47,0,0,1-3.1-1.84,42.85,42.85,0,0,1-2.74-5.46,47.17,47.17,0,0,1-1.64-6A2.71,2.71,0,0,1,68,203.68a8.21,8.21,0,0,1,5.57.29,2.09,2.09,0,0,0,2.29-.15c1.59-1,3.22-1.95,5-3-.86-1.61-1.62-3.12-2.5-4.57-.19-.31-.81-.43-1.25-.51-2.72-.51-5.47-.86-8.16-1.49a17.79,17.79,0,0,1-8-3.93A23.44,23.44,0,0,1,59,188.2c-2.14.6-3.52-.7-4.6-2.56a6.27,6.27,0,0,1-.82-5.16,1.57,1.57,0,0,0,0-1A3.51,3.51,0,0,1,54.12,175.79ZM64,188.68l-.1.29c.6.35,1.17.75,1.8,1.05a32.77,32.77,0,0,0,9.53,2.53A68.44,68.44,0,0,0,95,192.21a46,46,0,0,0,12.71-3.59,36.52,36.52,0,0,0,4.23-2.55,3,3,0,0,0,1.33-2.85c-.16-5.39-.23-10.78-.34-16.17q-.37-19-.76-38c0-.47-.07-.93-.11-1.51l-.8.25c-2.43.82-4.82,1.8-7.31,2.42A106.44,106.44,0,0,1,82.31,133a81.17,81.17,0,0,1-16.41-.77c-1.57-.26-3.11-.67-4.8-1,0,.62,0,1.14,0,1.66l.3,12.24c.08,3.11.16,6.21.23,9.32,0,.77.07,1.47,1.4,1.67a9.25,9.25,0,0,1,.84-1.13,34.68,34.68,0,0,1,2.66-2.48,1.44,1.44,0,0,1,2.09,0,1.51,1.51,0,0,1-.08,2,3.22,3.22,0,0,1-.39.43q-3.66,3.47-7.31,6.9c-.74.7-1.5,1.39-2.28,2a3.71,3.71,0,0,0-1.27,2.83,35.21,35.21,0,0,0,.88,8.41l1.88.73c-.22-2.42-.45-4.63-.63-6.85a4.65,4.65,0,0,1,1.36-3.85c2.61-2.68,5.18-5.39,7.78-8.07a4.17,4.17,0,0,1,1-.78,1.26,1.26,0,0,1,1.49.2,1.23,1.23,0,0,1,.29,1.59,7.3,7.3,0,0,1-1,1.26c-.53.61-1.08,1.2-1.84,2A16.87,16.87,0,0,1,70,162.39a55.23,55.23,0,0,1,7.75,9.81,41.34,41.34,0,0,1,5.39,12.68,11.32,11.32,0,0,1,.34,2.15A1.72,1.72,0,0,1,81.7,189a8.22,8.22,0,0,1-1.31-.07,40.25,40.25,0,0,1-9.31-2.29l-1.14-.4c-1,.91-1.66,2-2.65,2.4S65.13,188.68,64,188.68Zm16.37-2.76c-2.39-9.06-7.18-16.25-13.71-22.6-1.2,1.21-2.32,2.34-3.46,3.45a2.84,2.84,0,0,0-.84,2.38,56,56,0,0,0,1.45,9.63,2.31,2.31,0,0,0,1.41,1.71,20.5,20.5,0,0,1,2.36,1.14,33.09,33.09,0,0,0,10.15,3.86C78.5,185.66,79.27,185.74,80.39,185.92Zm28.92,29a4.13,4.13,0,0,0-1.69-3.12,8.19,8.19,0,0,0-3.59-1.51,16,16,0,0,0-7.6.7,2.55,2.55,0,0,1-3.38-1.44c-2.36-4.46-4.69-8.93-7.1-13.53a26.44,26.44,0,0,0-4.28.14c.32.62.56,1.09.81,1.55q3.27,6.1,6.54,12.19a6,6,0,0,1,.77,3.19,9.59,9.59,0,0,0,.46,3,2.44,2.44,0,0,0,1.11,1.23,3.45,3.45,0,0,0,1.55.25,49.29,49.29,0,0,0,14.24-1.84C107.84,215.57,108.5,215.27,109.31,215Zm-27.8,3a19.43,19.43,0,0,0,0-2.54c-.49-3.4-3.25-4.68-6.21-2.91a7.44,7.44,0,0,1-1.13.64,1.24,1.24,0,0,1-1.57-.38,1.31,1.31,0,0,1,0-1.62,3.5,3.5,0,0,1,.71-.73,7.77,7.77,0,0,1,4.13-1.64,3,3,0,0,0,1.13-.15c1.61-.87,3.19-1.79,4.91-2.77l-1.37-2.4c-1.78,1-3.42,2-5,2.93a4.61,4.61,0,0,1-4.69.29,4.8,4.8,0,0,0-3.63-.1,25.47,25.47,0,0,0,3.61,10.27,1.81,1.81,0,0,0,1.58.82C76.37,217.79,78.79,217.89,81.51,218ZM45.45,160.33c1.34,3.27,7.23,10.72,9.17,11.63,0-.52-.14-1-.14-1.47,0-1.7-.06-3.39,0-5.08a4.76,4.76,0,0,1,1.63-3.32l3.23-2.93c.3-.28.58-.59,1-1a36.28,36.28,0,0,0-8.88-4.53,12.37,12.37,0,0,0,0,2c.17,1,.44,2,.69,3a1.77,1.77,0,0,1-.37,1.89,1.52,1.52,0,0,1-1.76.12C48.61,160,47.12,160.26,45.45,160.33Zm70.94,12.6a4.89,4.89,0,0,0,.74-.68q3.65-5.53,7.26-11.09a13.18,13.18,0,0,0,1.87-6.65,4.32,4.32,0,0,0-2.18-4.15A18.26,18.26,0,0,0,118,148c-.58-.13-1.18-.22-1.78-.32-.31,3.13-.27,2.83,2,4.13.71.41,1.48.74,2.15,1.21a4,4,0,0,1,1.6,5.11,28.19,28.19,0,0,1-1.9,3.76c-.86,1.52-1.87,3-2.72,4.48a7.56,7.56,0,0,0-1,2.55A31.55,31.55,0,0,0,116.39,172.93Zm-26.59,24c.68,1.44,1.44,2.86,2.29,4.36,2.26-1.79,4.15-3.58,5.15-6.37-1.94.25-3.7.5-5.46.69A2.23,2.23,0,0,0,89.8,196.93ZM111.72,124c-1.19-1.27-4.58-2.29-6.44-2,.28,1.45.57,2.9.88,4.53A16.15,16.15,0,0,0,111.72,124ZM116.55,162c.7-1.18,1.34-2.18,1.9-3.22,1.46-2.71,1.09-3.56-1.86-4.5a1,1,0,0,0-.28,0A32.07,32.07,0,0,0,116.55,162Zm-50.42,23.8c.53-.89.58-1,0-1.35a25.62,25.62,0,0,0-2.75-1.31,1.08,1.08,0,0,0-.7.07,7.7,7.7,0,0,1-5.66-.35,3.62,3.62,0,0,0-.67-.13A3.08,3.08,0,0,0,58,185.2c.14-.1.31-.19.46-.31,1.26-1,1.7-1,2.8.17.29.3.6.56.88.82.21-.15.31-.18.36-.26,1.1-1.49,1.54-1.54,2.86-.36C65.58,185.47,65.86,185.64,66.13,185.84Zm-5.2-5.39a5,5,0,0,0-3-2.27c-.54-.18-1.09-.38-1.59.1A4,4,0,0,0,60.93,180.45Z"/><path d="M95.58,100.66a1.64,1.64,0,0,1-2.36,1.67,6.33,6.33,0,0,1-1.16-.86q-2.81-2.19-5.62-4.37c-1.53-1.18-3.15-2.27-4.6-3.54a6.34,6.34,0,0,1-1.63-2.35c-.91-2.26.55-4,3-3.72a9.34,9.34,0,0,1,4.13,1.7,20.67,20.67,0,0,1,5.77,6.47c.78,1.28,1.46,2.62,2.15,4A6.38,6.38,0,0,1,95.58,100.66Z"/><path d="M93.59,173.14a13.33,13.33,0,0,1-10.28-6,6.22,6.22,0,0,1-.82-2,1.47,1.47,0,0,1,1-1.84,1.39,1.39,0,0,1,1.74.95c1,3.15,3.56,4.59,6.42,5.64a4.44,4.44,0,0,0,3.8-.12,1.39,1.39,0,0,1,2,.45,1.57,1.57,0,0,1-.58,2.05A5.19,5.19,0,0,1,93.59,173.14Z"/><path d="M104.31,153.59a5,5,0,0,1-3.93-1.6,2.67,2.67,0,0,1-.69-1.38,1.3,1.3,0,0,1,1.85-1.32,3,3,0,0,1,.73.47,3.17,3.17,0,0,0,4.44-.15,15,15,0,0,0,1.06-1.19c.74-.79,1.51-.94,2.17-.42a1.55,1.55,0,0,1,.16,2.22A7.17,7.17,0,0,1,104.31,153.59Z"/><path d="M88.48,156a16.06,16.06,0,0,1-2.6-.82,2.15,2.15,0,0,1-1.07-2.73,1.48,1.48,0,0,1,1.25-1.07,1.18,1.18,0,0,1,1.33.69,1.24,1.24,0,0,0,1.66.76c1.16-.31,2.3-.72,3.43-1.12.4-.15.76-.55,1.15-.57a2.27,2.27,0,0,1,1.44.4,1.13,1.13,0,0,1,.12,1.59,4.08,4.08,0,0,1-1.14,1.09A12.32,12.32,0,0,1,88.48,156Z"/></svg>