<svg id="Calque_1" data-name="Calque 1" xmlns="http://www.w3.org/2000/svg" viewBox="0 0 274.41 306.86"><defs><style>.cls-1{fill:none;}.cls-2{fill:#fff;}</style></defs><path class="cls-1" d="M134,243.07c-5.82,8.06-11.58,16-17.71,24.51C126.57,264.41,135.8,251.35,134,243.07Z"/><path class="cls-1" d="M161.43,200.55q-25.35,33.27-50.65,66.56a10.91,10.91,0,0,0-.84,1.54l.64.78c1.18-.82,2.69-1.41,3.5-2.5q17.49-23.64,34.79-47.43c4.83-6.66,9.38-13.53,14-20.31A9.72,9.72,0,0,0,161.43,200.55Z"/><path class="cls-1" d="M99.39,272.68c2.24-1.64,1-3-.17-4.79L97,270.44Z"/><path class="cls-1" d="M103.88,276.81l2.22,1.81,1.62-2.64C105.82,274.36,104.64,274.52,103.88,276.81Z"/><path d="M162.92,199.19l.23-.2a1.86,1.86,0,0,0,.1-.2l-.16.14C163,199,163,199.11,162.92,199.19Z"/><rect class="cls-2" width="274.41" height="306.86"/><path d="M14.54,256v-4.82q0-6.27,2.16-9.32t6.8-3q4.59,0,6.76,2.94c1.44,2,2.19,5,2.23,9.07v4.69c0,4.23-.73,7.38-2.17,9.44S26.61,268,23.54,268s-5.28-1-6.74-3S14.59,260,14.54,256Zm5,6.87a4.38,4.38,0,0,0,4,2.21,4.39,4.39,0,0,0,4-2.07q1.29-2.07,1.35-6.52v-5.92q0-4.59-1.29-6.69a4.44,4.44,0,0,0-4.08-2.1,4.37,4.37,0,0,0-4,2.09c-.85,1.39-1.28,3.54-1.31,6.43v5.78C18.15,259.14,18.6,261.41,19.5,262.86Z"/><path d="M36.94,260a7.26,7.26,0,0,1,1.26-4.16A7.9,7.9,0,0,1,41.68,253a7.4,7.4,0,0,1-3-2.6,6.67,6.67,0,0,1-1.1-3.77,7.35,7.35,0,0,1,2.31-5.7A8.66,8.66,0,0,1,46,238.8a8.71,8.71,0,0,1,6.07,2.11,7.35,7.35,0,0,1,2.31,5.7,6.58,6.58,0,0,1-1.12,3.79,7.57,7.57,0,0,1-3,2.6,8.25,8.25,0,0,1,3.53,2.79A7.09,7.09,0,0,1,55,260a7.41,7.41,0,0,1-2.49,5.88A9.55,9.55,0,0,1,46,268a9.51,9.51,0,0,1-6.57-2.2A7.45,7.45,0,0,1,36.94,260Zm3.61-.07A5.06,5.06,0,0,0,42,263.69a5.51,5.51,0,0,0,4,1.38,5.52,5.52,0,0,0,4-1.39,5.06,5.06,0,0,0,1.44-3.8A5.24,5.24,0,0,0,49.9,256a5.38,5.38,0,0,0-4-1.5,5.09,5.09,0,0,0-5.39,5.39Zm.67-13.21a4.8,4.8,0,0,0,1.3,3.51,5.15,5.15,0,0,0,6.93,0,5.34,5.34,0,0,0-.05-7A4.61,4.61,0,0,0,46,241.77a4.67,4.67,0,0,0-3.45,1.32A4.87,4.87,0,0,0,41.22,246.67Z"/><path d="M12.72,273.5h4l5.27,15.84,4.92-15.84h3.87l-8.5,24.39q-2,5.28-6.27,5.28l-.68-.06-1.35-.26v-2.93l1,.08a4.84,4.84,0,0,0,2.86-.74,5.4,5.4,0,0,0,1.69-2.72l.8-2.14Z"/><path d="M33,284.65V284a12.71,12.71,0,0,1,1.2-5.62,9.34,9.34,0,0,1,3.36-3.87,8.46,8.46,0,0,1,4.68-1.39,7.92,7.92,0,0,1,6.41,2.71Q51,278.53,51,283.6v1.5H36.65a7.53,7.53,0,0,0,1.82,5,5.76,5.76,0,0,0,4.45,1.92,6.32,6.32,0,0,0,3.24-.78,8.13,8.13,0,0,0,2.32-2.07l2.21,1.72a8.88,8.88,0,0,1-8,4.08,9.23,9.23,0,0,1-7-2.82A10.47,10.47,0,0,1,33,284.65Zm14.32-2.52v-.27a6.89,6.89,0,0,0-1.49-4.27,4.52,4.52,0,0,0-3.59-1.51,4.82,4.82,0,0,0-3.67,1.59,7.77,7.77,0,0,0-1.84,4.46Z"/><path d="M57.06,283.63q2.49-1.81,7-1.81h3.51v-1.66a4.09,4.09,0,0,0-1.13-3A4.56,4.56,0,0,0,63.15,276a5.26,5.26,0,0,0-3.24,1,2.9,2.9,0,0,0-1.31,2.37H55a5,5,0,0,1,1.12-3.06,7.63,7.63,0,0,1,3-2.33,10.11,10.11,0,0,1,4.22-.86,8.4,8.4,0,0,1,5.73,1.82,6.63,6.63,0,0,1,2.15,5v9.73a11.82,11.82,0,0,0,.74,4.63v.31H68.19a7.55,7.55,0,0,1-.51-2.23,8,8,0,0,1-6,2.62,7.44,7.44,0,0,1-5.13-1.77,5.68,5.68,0,0,1-2-4.48A6,6,0,0,1,57.06,283.63Zm2.22,7.29a4.36,4.36,0,0,0,2.91,1,6.43,6.43,0,0,0,3.23-.88,5.32,5.32,0,0,0,2.2-2.29v-4.33H64.79q-6.65,0-6.64,3.88A3.3,3.3,0,0,0,59.28,290.92Z"/><path d="M80.42,273.5l0,2.44a5.63,5.63,0,0,1,5-2.83,3.69,3.69,0,0,1,1.6.27v3.36a10.86,10.86,0,0,0-1.77-.14,4.77,4.77,0,0,0-4.83,3v15H76.9V273.5Z"/><path d="M93.17,288.13A3.74,3.74,0,0,0,94.62,291a5.66,5.66,0,0,0,3.59,1.06,5.77,5.77,0,0,0,3.29-.83,2.54,2.54,0,0,0,1.24-2.22,2.67,2.67,0,0,0-1.1-2.27,10.65,10.65,0,0,0-3.85-1.4,18.63,18.63,0,0,1-4.36-1.4,6.18,6.18,0,0,1-2.38-2,4.68,4.68,0,0,1-.77-2.69,5.49,5.49,0,0,1,2.2-4.4,8.59,8.59,0,0,1,5.61-1.79,8.86,8.86,0,0,1,5.83,1.85,5.91,5.91,0,0,1,2.24,4.75h-3.64a3.29,3.29,0,0,0-1.25-2.56,4.71,4.71,0,0,0-3.18-1.07,4.88,4.88,0,0,0-3.08.86,2.68,2.68,0,0,0-1.12,2.24,2.19,2.19,0,0,0,1,2,12.34,12.34,0,0,0,3.74,1.27,19.81,19.81,0,0,1,4.38,1.45,6.37,6.37,0,0,1,2.49,2,5,5,0,0,1,.81,2.88,5.4,5.4,0,0,1-2.26,4.54A9.5,9.5,0,0,1,98.21,295a10.62,10.62,0,0,1-4.49-.9,7.2,7.2,0,0,1-3.06-2.51,6,6,0,0,1-1.1-3.48Z"/><path d="M210.72,241.22l-11.78,26.41h-3.79l11.74-25.47H191.5v-3h19.22Z"/><path d="M211.19,275.81v-2.89a6.6,6.6,0,0,0,1.64.16,2.47,2.47,0,0,0,1.84-.65,3.27,3.27,0,0,0,.64-2.28V246.5h3.61v23.57c0,4.06-1.84,6.1-5.53,6.1A6.51,6.51,0,0,1,211.19,275.81Zm4.29-36.4a1.93,1.93,0,0,1,1.56-.61,2,2,0,0,1,1.61.61,2.14,2.14,0,0,1,.54,1.48,1.94,1.94,0,0,1-2.15,2.05,2,2,0,0,1-1.58-.58,2.12,2.12,0,0,1-.52-1.47A2.18,2.18,0,0,1,215.48,239.41Z"/><path d="M225.46,270.07h-3.1l11.87-30.88h3.09Z"/><path d="M259.21,241.22l-11.77,26.41h-3.79l11.73-25.47H240v-3h19.22Z"/><path d="M174.49,290.49a5.35,5.35,0,0,1,.57-2.27,3.62,3.62,0,0,1,1.41-1.51,4,4,0,0,1,2-.53,3.35,3.35,0,0,1,2.68,1,4.09,4.09,0,0,1,.87,2.75c0,.11,0,.22,0,.34a3.86,3.86,0,0,1-.26,1.3,2,2,0,0,1-.6.9,1.32,1.32,0,0,1-.85.3,1,1,0,0,1-.75-.28,1.22,1.22,0,0,1-.33-.78,1.63,1.63,0,0,1-1.54,1.06.94.94,0,0,1-.9-.51,2.42,2.42,0,0,1-.28-1.2c0-.13,0-.25,0-.39a3.47,3.47,0,0,1,.67-1.85,1.66,1.66,0,0,1,1.35-.7,1.38,1.38,0,0,1,.91.31l.24.2-.22,2.7a1.41,1.41,0,0,0,0,.2,1.17,1.17,0,0,0,.2.71.73.73,0,0,0,.65.28,1.13,1.13,0,0,0,1-.6,3.21,3.21,0,0,0,.43-1.65c0-.14,0-.27,0-.4a3.71,3.71,0,0,0-.79-2.52,3.15,3.15,0,0,0-2.51-.92,3.56,3.56,0,0,0-1.87.52,3.62,3.62,0,0,0-1.33,1.44,5.05,5.05,0,0,0-.55,2.09v.29a4.78,4.78,0,0,0,.36,1.86,3,3,0,0,0,1.15,1.38,3.3,3.3,0,0,0,1.84.51,3.23,3.23,0,0,0,.82-.1,2.92,2.92,0,0,0,.71-.27l.11.21a2.29,2.29,0,0,1-.77.3,3.55,3.55,0,0,1-.89.11,3.63,3.63,0,0,1-2-.52,3,3,0,0,1-1.22-1.43,5.19,5.19,0,0,1-.38-2Zm2.32.91a1.61,1.61,0,0,0,.28.84.75.75,0,0,0,.62.29,1.3,1.3,0,0,0,.95-.35,2.62,2.62,0,0,0,.61-1.08l.2-2.34a1.13,1.13,0,0,0-.91-.37,1.39,1.39,0,0,0-1,.46,2.76,2.76,0,0,0-.63,1.27,4.78,4.78,0,0,0-.11.95A1.72,1.72,0,0,0,176.81,291.4Z"/><path d="M182,294.38a1.36,1.36,0,0,0,.44.08,1,1,0,0,0,.79-.31,1.25,1.25,0,0,0,.28-.86V287.7h.24v5.59a1.46,1.46,0,0,1-.34,1,1.26,1.26,0,0,1-1,.37,1.2,1.2,0,0,1-.45-.09Zm1.4-8.24a.24.24,0,0,1,.07-.18.24.24,0,0,1,.36,0,.24.24,0,0,1,0,.36.25.25,0,0,1-.43-.18Z"/><path d="M185.11,290.1a2.82,2.82,0,0,1,.28-1.27,2.17,2.17,0,0,1,.76-.9,1.84,1.84,0,0,1,1.06-.32,1.72,1.72,0,0,1,1.36.59,2.25,2.25,0,0,1,.53,1.57V290h-3.74v.27a2.54,2.54,0,0,0,.26,1.13,1.92,1.92,0,0,0,.7.81,1.74,1.74,0,0,0,1,.3,2,2,0,0,0,.85-.17,1.63,1.63,0,0,0,.63-.52l.18.13a1.91,1.91,0,0,1-1.66.8,2,2,0,0,1-1.11-.32,2.27,2.27,0,0,1-.79-.89,2.78,2.78,0,0,1-.29-1.26Zm.26-.32h3.48v-.06a2.12,2.12,0,0,0-.21-.94,1.64,1.64,0,0,0-.59-.68,1.53,1.53,0,0,0-.84-.24,1.64,1.64,0,0,0-1.24.54A2.3,2.3,0,0,0,185.37,289.78Z"/><path d="M190.51,287.7v1a1.86,1.86,0,0,1,.61-.83,1.67,1.67,0,0,1,1-.3.86.86,0,0,1,.35.05l0,.22-.33,0a1.48,1.48,0,0,0-1.06.41,2.06,2.06,0,0,0-.57,1.16v3.27h-.24v-5Z"/><path d="M193,290.1a3,3,0,0,1,.28-1.27,2.25,2.25,0,0,1,.76-.9,1.86,1.86,0,0,1,1.06-.32,1.71,1.71,0,0,1,1.36.59,2.25,2.25,0,0,1,.54,1.57V290h-3.75v.27a2.54,2.54,0,0,0,.26,1.13,1.94,1.94,0,0,0,.71.81,1.71,1.71,0,0,0,1,.3,2,2,0,0,0,.86-.17,1.68,1.68,0,0,0,.62-.52l.18.13a1.9,1.9,0,0,1-1.66.8,2,2,0,0,1-1.11-.32,2.27,2.27,0,0,1-.79-.89,2.78,2.78,0,0,1-.29-1.26Zm.27-.32h3.48v-.06a2.13,2.13,0,0,0-.22-.94,1.64,1.64,0,0,0-.59-.68,1.53,1.53,0,0,0-.84-.24,1.64,1.64,0,0,0-1.24.54A2.29,2.29,0,0,0,193.3,289.78Z"/><path d="M198.14,292.69v-5h.25v1.18a2.05,2.05,0,0,1,.73-.94,1.92,1.92,0,0,1,2.06-.06,1.37,1.37,0,0,1,.53.91,1.83,1.83,0,0,1,.72-.86,2,2,0,0,1,1.12-.32,1.53,1.53,0,0,1,1.2.45,2.13,2.13,0,0,1,.4,1.37v3.26h-.25v-3.24a1.86,1.86,0,0,0-.33-1.21,1.24,1.24,0,0,0-1-.39h0a1.75,1.75,0,0,0-1.44.73,1.53,1.53,0,0,0-.33.79v3.32h-.25v-3.35a1.63,1.63,0,0,0-.33-1.12,1.31,1.31,0,0,0-1-.37,1.59,1.59,0,0,0-1.34.73,2.43,2.43,0,0,0-.41,1v3.15Z"/><path d="M206.34,287.7l1.85,4.6,1.75-4.6h.28L208,293.56l-.11.28a1.23,1.23,0,0,1-1.19.87,1,1,0,0,1-.37,0v-.24a1.18,1.18,0,0,0,.34,0,.91.91,0,0,0,.65-.23,1.88,1.88,0,0,0,.45-.74l.3-.83-2-5Z"/><path d="M211.12,292.69v-5h.26v1.18a2,2,0,0,1,.72-.94,1.76,1.76,0,0,1,1-.33,1.81,1.81,0,0,1,1,.27,1.36,1.36,0,0,1,.52.91,1.83,1.83,0,0,1,.72-.86,2,2,0,0,1,1.12-.32,1.5,1.5,0,0,1,1.2.45,2.07,2.07,0,0,1,.4,1.37v3.26h-.25v-3.24a1.92,1.92,0,0,0-.32-1.21,1.25,1.25,0,0,0-1-.39h0a1.72,1.72,0,0,0-1.44.73,1.47,1.47,0,0,0-.34.79v3.32h-.25v-3.35a1.63,1.63,0,0,0-.33-1.12,1.28,1.28,0,0,0-1-.37,1.56,1.56,0,0,0-1.34.73,2.18,2.18,0,0,0-.41,1v3.15Z"/><path d="M219.9,290.32a3,3,0,0,1,1.64-.42h1.24v-.72a1.22,1.22,0,0,0-.4-1,1.66,1.66,0,0,0-1.13-.34,1.8,1.8,0,0,0-1.14.35,1,1,0,0,0-.45.86h-.25a1.29,1.29,0,0,1,.53-1,2.08,2.08,0,0,1,1.31-.42,1.93,1.93,0,0,1,1.29.4,1.48,1.48,0,0,1,.49,1.14v2.38a3.13,3.13,0,0,0,.13,1.12v0h-.29a3.54,3.54,0,0,1-.09-.91,2,2,0,0,1-.81.74,2.45,2.45,0,0,1-1.16.26,1.6,1.6,0,0,1-1.11-.37,1.26,1.26,0,0,1-.43-1A1.28,1.28,0,0,1,219.9,290.32Zm0,1.9a1.36,1.36,0,0,0,.92.32,2.34,2.34,0,0,0,1.21-.31,2,2,0,0,0,.76-.89v-1.18h-1.16a2.69,2.69,0,0,0-1.63.42,1,1,0,0,0-.47.87A1,1,0,0,0,219.89,292.22Z"/><path d="M224.88,287.7v1a1.86,1.86,0,0,1,.61-.83,1.67,1.67,0,0,1,1-.3.89.89,0,0,1,.35.05l0,.22-.32,0a1.52,1.52,0,0,0-1.07.41,2.11,2.11,0,0,0-.56,1.16v3.27h-.25v-5Z"/><path d="M227.17,287.7h.93v-1.35h.25v1.35h1.14V288h-1.14v3.55a1.46,1.46,0,0,0,.17.78.65.65,0,0,0,.58.25,3.31,3.31,0,0,0,.5,0l0,.24a1.66,1.66,0,0,1-.52,0,.91.91,0,0,1-.78-.3,1.52,1.52,0,0,1-.24-1V288h-.93Z"/><path d="M230.79,286a.29.29,0,0,1,.18-.07.25.25,0,0,1,.18.44.27.27,0,0,1-.36,0,.25.25,0,0,1-.08-.18A.29.29,0,0,1,230.79,286Zm.05,6.74v-5h.25v5Z"/><path d="M233,287.7v1.16a2.07,2.07,0,0,1,.72-.92,1.81,1.81,0,0,1,1.05-.33,1.48,1.48,0,0,1,1.19.45,2.11,2.11,0,0,1,.4,1.37v3.26h-.25v-3.27a1.77,1.77,0,0,0-.33-1.18,1.25,1.25,0,0,0-1-.39,1.53,1.53,0,0,0-1.12.46,2.31,2.31,0,0,0-.64,1.18v3.2h-.25v-5Z"/><path d="M237.89,287.7h.25v.89a1.83,1.83,0,0,1,.7-.73,1.93,1.93,0,0,1,1-.25,1.63,1.63,0,0,1,1.38.67,3.11,3.11,0,0,1,.5,1.88v.08a3.13,3.13,0,0,1-.5,1.86,1.64,1.64,0,0,1-1.38.68,2.12,2.12,0,0,1-1-.23,1.75,1.75,0,0,1-.69-.63v2.69h-.25Zm.89,4.55a1.92,1.92,0,0,0,1.07.28,1.37,1.37,0,0,0,1.19-.6,3.16,3.16,0,0,0,.42-1.79,2.94,2.94,0,0,0-.42-1.68,1.4,1.4,0,0,0-1.2-.6,1.74,1.74,0,0,0-1.07.32,1.83,1.83,0,0,0-.63.94v2.33A1.59,1.59,0,0,0,238.78,292.25Z"/><path d="M242.68,290.1a2.82,2.82,0,0,1,.28-1.27,2.17,2.17,0,0,1,.76-.9,1.84,1.84,0,0,1,1.06-.32,1.72,1.72,0,0,1,1.36.59,2.25,2.25,0,0,1,.53,1.57V290h-3.74v.27a2.54,2.54,0,0,0,.26,1.13,1.92,1.92,0,0,0,.7.81,1.74,1.74,0,0,0,1,.3,2.06,2.06,0,0,0,.86-.17,1.68,1.68,0,0,0,.62-.52l.18.13a1.91,1.91,0,0,1-1.66.8,2,2,0,0,1-1.11-.32,2.27,2.27,0,0,1-.79-.89,2.78,2.78,0,0,1-.29-1.26Zm.27-.32h3.47v-.06a2.12,2.12,0,0,0-.21-.94,1.64,1.64,0,0,0-.59-.68,1.53,1.53,0,0,0-.84-.24,1.64,1.64,0,0,0-1.24.54A2.24,2.24,0,0,0,243,289.78Z"/><path d="M248.09,287.7v1a1.77,1.77,0,0,1,.6-.83,1.71,1.71,0,0,1,1-.3.92.92,0,0,1,.36.05l0,.22-.33,0a1.48,1.48,0,0,0-1.06.41,2,2,0,0,0-.56,1.16v3.27h-.25v-5Z"/><path d="M251,291.42a1,1,0,0,0,.46.82,2,2,0,0,0,1.16.29,1.76,1.76,0,0,0,1.09-.31.9.9,0,0,0,.41-.75c0-.61-.51-1-1.55-1.24a3,3,0,0,1-1.29-.51,1,1,0,0,1-.37-.85,1.11,1.11,0,0,1,.47-.91,2,2,0,0,1,1.2-.35,2.09,2.09,0,0,1,1.3.38,1.26,1.26,0,0,1,.49,1h-.25a1.06,1.06,0,0,0-.43-.84,1.75,1.75,0,0,0-1.11-.33,1.68,1.68,0,0,0-1,.28.91.91,0,0,0-.24,1.25,1.25,1.25,0,0,0,.46.34,5.52,5.52,0,0,0,.94.3,3.68,3.68,0,0,1,1,.34,1.38,1.38,0,0,1,.52.45,1.23,1.23,0,0,1,.16.65,1.12,1.12,0,0,1-.48.95,2.08,2.08,0,0,1-1.27.36,2.16,2.16,0,0,1-1.35-.38,1.15,1.15,0,0,1-.52-1Z"/><path d="M255.32,290.1a2.84,2.84,0,0,1,.28-1.29,2.16,2.16,0,0,1,.77-.89,2.12,2.12,0,0,1,3,.87,3,3,0,0,1,.28,1.28v.22a3,3,0,0,1-.27,1.29,2.16,2.16,0,0,1-.77.89,2.12,2.12,0,0,1-1.14.31,2.06,2.06,0,0,1-1.13-.31,2.16,2.16,0,0,1-.78-.88,2.92,2.92,0,0,1-.28-1.27Zm.5,1.33a1.88,1.88,0,0,0,.68.81,1.76,1.76,0,0,0,1,.29,1.71,1.71,0,0,0,1.39-.64,2.46,2.46,0,0,0,.54-1.65v-.14a2.57,2.57,0,0,0-.25-1.14,1.89,1.89,0,0,0-.69-.81,1.83,1.83,0,0,0-2.39.36,2.46,2.46,0,0,0-.54,1.63v.15A2.51,2.51,0,0,0,255.82,291.43Z"/><path d="M26.69,231.9a3.2,3.2,0,0,0,2.72-1.31,5.62,5.62,0,0,0,1-3.41,5.23,5.23,0,0,0-.85-3.08,2.62,2.62,0,0,0-2.22-1.21,2.71,2.71,0,0,0-1.54.43,3.65,3.65,0,0,0-1.12,1.34,14.47,14.47,0,0,0-1,2.76,13.18,13.18,0,0,1-1,2.76,3.77,3.77,0,0,1-1.2,1.36,3.13,3.13,0,0,1-1.66.43,3,3,0,0,1-2.52-1.31,6.29,6.29,0,0,1-.43-5.87,4.08,4.08,0,0,1,1.5-1.68,4,4,0,0,1,2.17-.6V223a3.36,3.36,0,0,0-2.63,1.17,4.38,4.38,0,0,0-1,3,5.1,5.1,0,0,0,.83,3,2.52,2.52,0,0,0,2.1,1.16,2.49,2.49,0,0,0,2.06-1,9.45,9.45,0,0,0,1.38-3.32,10.24,10.24,0,0,1,1.39-3.39,3.34,3.34,0,0,1,4.6-.76,3.91,3.91,0,0,1,1.27,1.72,6.63,6.63,0,0,1,.45,2.5,7.16,7.16,0,0,1-.51,2.77,3.79,3.79,0,0,1-3.7,2.48Z"/><path d="M16.45,219.85a.51.51,0,0,1-.16-.38.55.55,0,0,1,.55-.55.51.51,0,0,1,.38.16.56.56,0,0,1,.15.39.51.51,0,0,1-.53.53A.56.56,0,0,1,16.45,219.85Zm14.25-.12H20.14v-.53H30.7Z"/><path d="M20.14,215.21H22.6a4.36,4.36,0,0,1-1.94-1.53,3.73,3.73,0,0,1-.72-2.22,3.17,3.17,0,0,1,1-2.53,4.45,4.45,0,0,1,2.91-.83H30.7v.53H23.79a3.82,3.82,0,0,0-2.51.69,2.67,2.67,0,0,0-.82,2.17,3.29,3.29,0,0,0,1,2.37,5,5,0,0,0,2.51,1.35H30.7v.53H20.14Z"/><path d="M25.22,205.52a5.89,5.89,0,0,1-3.84-1.17,3.81,3.81,0,0,1-1.44-3.13,3.94,3.94,0,0,1,1-2.77,3.64,3.64,0,0,1,2.67-1.16v.53a3.19,3.19,0,0,0-2.29,1,3.41,3.41,0,0,0-.86,2.4A3.32,3.32,0,0,0,21.74,204a5.58,5.58,0,0,0,3.54,1h.35a5.42,5.42,0,0,0,3.48-1,3.36,3.36,0,0,0,1.26-2.78,3.6,3.6,0,0,0-.76-2.36,2.77,2.77,0,0,0-2.11-1v-.53A3.31,3.31,0,0,1,30,198.47a4.11,4.11,0,0,1,.93,2.73,3.82,3.82,0,0,1-1.44,3.15,6,6,0,0,1-3.89,1.17Z"/><path d="M25.22,195.47a6.13,6.13,0,0,1-2.69-.58,4.58,4.58,0,0,1-1.9-1.62,3.89,3.89,0,0,1-.69-2.23,3.69,3.69,0,0,1,1.26-2.89A4.8,4.8,0,0,1,24.51,187h.56v7.92h.58A5.3,5.3,0,0,0,28,194.4a4.28,4.28,0,0,0,1.73-1.49,3.75,3.75,0,0,0,.62-2.07A4.3,4.3,0,0,0,30,189a3.71,3.71,0,0,0-1.1-1.32l.26-.37a4,4,0,0,1,1.71,3.5,4.23,4.23,0,0,1-.69,2.35,4.82,4.82,0,0,1-1.89,1.68,5.87,5.87,0,0,1-2.66.6Zm-.68-.55v-7.37h-.12a4.36,4.36,0,0,0-2,.46A3.46,3.46,0,0,0,21,189.26a3.22,3.22,0,0,0-.51,1.78,3.44,3.44,0,0,0,1.15,2.62A5,5,0,0,0,24.54,194.92Z"/><path d="M130.08,71.56l0,.83a.89.89,0,0,0-.48,0,.88.88,0,0,0-.29.31,1.52,1.52,0,0,0-.12.76L130,88h0c0,.21,0,.43,0,.68s0,.48,0,.72v.28c0,.11,0,.22,0,.33a1.51,1.51,0,0,1,0,.3,18.6,18.6,0,0,1-.17,2.6,5.84,5.84,0,0,1-.65,2,4.17,4.17,0,0,1-1.31,1.43,5.22,5.22,0,0,1-2.19.78,4.65,4.65,0,0,1-2.41-.32,4.44,4.44,0,0,1-1.68-1.26,5.48,5.48,0,0,1-1.18-3.71,2.6,2.6,0,0,1,.55-1.52,1.74,1.74,0,0,1,1.33-.66,1.81,1.81,0,0,1,1.3.44,1.7,1.7,0,0,1,.28,2.32,2.11,2.11,0,0,1-.91.68.48.48,0,0,1-.18,0,.86.86,0,0,0-.59.8,2.09,2.09,0,0,0,.34,1.21,2.9,2.9,0,0,0,1.16,1,2.54,2.54,0,0,0,1.78.17,2.48,2.48,0,0,0,1.13-.58,3,3,0,0,0,.68-1,4.8,4.8,0,0,0,.34-1.33c0-.49.09-1,.11-1.55l-.06-1.15-.86-17.13a1.37,1.37,0,0,0-.2-.74.74.74,0,0,0-.35-.28.59.59,0,0,0-.41,0l-.05-.84Z"/><path d="M144,94.11l-.42,3.65-9.7-1.12.1-.9a.43.43,0,0,0,.42,0,.55.55,0,0,0,.36-.22,1.32,1.32,0,0,0,.24-.69l2.44-21.11a1.4,1.4,0,0,0-.07-.76.79.79,0,0,0-.3-.34.73.73,0,0,0-.42,0l.1-.83,9.7,1.12L146,76.55l-.9-.1a6.76,6.76,0,0,0,0-1.45,3.17,3.17,0,0,0-.46-1.06,1.37,1.37,0,0,0-1-.59L140,72.93l-1.31,11.26,2.44.28a.93.93,0,0,0,.72-.16,1.34,1.34,0,0,0,.41-.51,2.71,2.71,0,0,0,.24-.86l.8.09-.49,4.28-.8-.09a2.31,2.31,0,0,0-.05-.85,1.5,1.5,0,0,0-.27-.65.93.93,0,0,0-.67-.34l-2.43-.28-1.28,11.09,3.61.42a1.51,1.51,0,0,0,1.15-.29,2.56,2.56,0,0,0,.68-.91,6.46,6.46,0,0,0,.38-1.4Z"/><path d="M156.25,100.45a.79.79,0,0,0,.39,0l.31,0-.22.74a2.87,2.87,0,0,1-.6.17,1.91,1.91,0,0,1-.85-.09,2.29,2.29,0,0,1-.82-.42,2.38,2.38,0,0,1-.65-.78,2.89,2.89,0,0,1-.34-1.13,4.12,4.12,0,0,1,.14-1.55l1.62-5.51a3.07,3.07,0,0,0,.14-1.25,1.67,1.67,0,0,0-.32-.84,1.83,1.83,0,0,0-.59-.52c-.23-.13-.44-.23-.64-.32l-1.38-.4-2.57,8.8a1.31,1.31,0,0,0-.07.73.52.52,0,0,0,.19.33.52.52,0,0,0,.44.13l-.26.87-4-1.18.26-.88a.41.41,0,0,0,.4.12.56.56,0,0,0,.4-.15,1.35,1.35,0,0,0,.35-.65l6-20.42a1.35,1.35,0,0,0,.06-.75.76.76,0,0,0-.23-.39A1.11,1.11,0,0,0,153,75l.23-.81,4.8,1.41a5.67,5.67,0,0,1,2.08,1.06,5.18,5.18,0,0,1,1.28,1.56,4.67,4.67,0,0,1,.5,1.83,5.64,5.64,0,0,1-.21,1.91l-1.07,3.66A5.59,5.59,0,0,1,159.15,88a4.34,4.34,0,0,1-2.63,1.24,3,3,0,0,1,1,3.52L156,98.08a9.13,9.13,0,0,0-.32,1.53A.72.72,0,0,0,156.25,100.45ZM156.14,76,152.72,87.6l1.81.53a2,2,0,0,0,.78,0,2.57,2.57,0,0,0,1-.34,3.4,3.4,0,0,0,1-.81A3.6,3.6,0,0,0,158,85.6l1.5-5.1a3.53,3.53,0,0,0,.14-1.55,3.88,3.88,0,0,0-.37-1.22,3.08,3.08,0,0,0-.63-.84,1.75,1.75,0,0,0-.66-.41Z"/><path d="M169.45,103.26l-1.61,3.3-8.78-4.28.4-.82c.14.14.27.21.38.19a.53.53,0,0,0,.41-.1,1.27,1.27,0,0,0,.46-.57L170,81.89a1.46,1.46,0,0,0,.19-.74.86.86,0,0,0-.17-.42.67.67,0,0,0-.38-.18l.37-.76,8.77,4.29-1.61,3.3-.82-.4a6.08,6.08,0,0,0,.44-1.38,2.85,2.85,0,0,0-.08-1.15,1.37,1.37,0,0,0-.78-.91l-3.27-1.6-5,10.19,2.2,1.08a1,1,0,0,0,.74.09,1.48,1.48,0,0,0,.56-.35,2.77,2.77,0,0,0,.51-.73l.72.36-1.89,3.86-.72-.35a2.35,2.35,0,0,0,.24-.82,1.51,1.51,0,0,0,0-.7.91.91,0,0,0-.52-.54L167.32,93l-4.9,10,3.27,1.6a1.46,1.46,0,0,0,1.18.11,2.6,2.6,0,0,0,.94-.63,6,6,0,0,0,.82-1.2Z"/><path d="M195.63,96.59a.9.9,0,0,0-.39-.3.8.8,0,0,0-.4.07,1.52,1.52,0,0,0-.56.52l-12.71,17a1.31,1.31,0,0,0-.32.66.45.45,0,0,0,.07.37.61.61,0,0,0,.39.3l-.55.73-3.39-2.54.55-.73a.42.42,0,0,0,.33.25.6.6,0,0,0,.44,0,1.16,1.16,0,0,0,.57-.47l11.49-15.39-5.23,4.26c-.66.53-1.3,1.05-1.92,1.58s-1.19,1-1.7,1.39-.92.74-1.23,1l-.49.42-1.18-.88c.21-.52.45-1.1.71-1.77s.54-1.34.83-2L181.8,99c.28-.69.57-1.37.86-2q1-2.34,2-4.73l-11.47,15.37a1.6,1.6,0,0,0-.34.64.47.47,0,0,0,.09.39.55.55,0,0,0,.36.28l-.57.75-2.38-1.78.57-.75a.44.44,0,0,0,.33.25.59.59,0,0,0,.43,0,1.16,1.16,0,0,0,.55-.48l12.69-17a1.28,1.28,0,0,0,.32-.7.83.83,0,0,0-.08-.44.69.69,0,0,0-.34-.25l.5-.67,2.75,2-5.13,12.73,10.6-8.65,2.64,2Z"/><path d="M209.86,110.24l-.63.56a.81.81,0,0,0-.33-.36,1,1,0,0,0-.52-.15,2.14,2.14,0,0,0-.82.22s-.45.22-1.23.56l-3,1.35-4.07,1.82-4.43,2,0,0-5.89,5.27a1.37,1.37,0,0,0-.44.59.45.45,0,0,0,0,.38.53.53,0,0,0,.3.34l-.68.61-2.8-3.13.68-.61a.64.64,0,0,0,.14.21.61.61,0,0,0,.17.14.57.57,0,0,0,.26.08,1.49,1.49,0,0,0,.74-.43l5.89-5.28,2.68-3.94c.89-1.34,1.71-2.56,2.44-3.67l1.8-2.74c.47-.72.71-1.09.73-1.1a1.51,1.51,0,0,0,.34-.75,1.15,1.15,0,0,0-.07-.52,1.12,1.12,0,0,0-.38-.42l.63-.56,2.94,3.28-.62.56a.66.66,0,0,0-.28-.31.5.5,0,0,0-.4,0,1.41,1.41,0,0,0-.53.54l-.58.88-1.47,2.21c-.61.91-1.3,1.94-2.08,3.08l-2.35,3.49,3.93-1.73c1.29-.56,2.45-1.07,3.46-1.53s1.85-.82,2.48-1.09,1-.41,1-.43a1.45,1.45,0,0,0,.63-.42.47.47,0,0,0,.06-.39.65.65,0,0,0-.28-.31l.62-.56Z"/><path d="M224.13,137.1a.94.94,0,0,0-.21-.45.8.8,0,0,0-.38-.13,1.51,1.51,0,0,0-.75.19l-19.3,8.87a1.4,1.4,0,0,0-.59.43.52.52,0,0,0-.12.37.58.58,0,0,0,.2.44l-.83.38-1.77-3.85.83-.38c0,.2.07.33.18.38a.58.58,0,0,0,.38.21,1.12,1.12,0,0,0,.73-.14l17.45-8c-2.45.47-4.67.88-6.63,1.24l-2.44.47-2.16.42-1.56.29-.63.14-.62-1.34,1.47-1.21c.55-.46,1.11-.93,1.7-1.4l1.76-1.42c.58-.48,1.15-.93,1.72-1.37l4-3.23-17.43,8a1.51,1.51,0,0,0-.6.41.46.46,0,0,0-.11.38.47.47,0,0,0,.19.41l-.86.4-1.25-2.71.86-.39c0,.2.08.33.18.38a.53.53,0,0,0,.38.19,1.22,1.22,0,0,0,.71-.15l19.27-8.86a1.36,1.36,0,0,0,.62-.46.71.71,0,0,0,.13-.43.59.59,0,0,0-.17-.38l.76-.35,1.43,3.12-10.59,8.72,13.45-2.52,1.37,3Z"/><path d="M207.18,159.62a1.12,1.12,0,0,0-.61.45,1.15,1.15,0,0,0-.15.56,1.29,1.29,0,0,0,.14.61l-.85.21-1.2-5,.86-.2a1,1,0,0,0,.13.54.59.59,0,0,0,.34.24,1,1,0,0,0,.7-.09l1.16-.48,2.9-1.18-1-4.35c-1.3.07-2.35.13-3.14.19l-1.25.1a1.09,1.09,0,0,0-.68.18.65.65,0,0,0-.2.36,1.13,1.13,0,0,0,.13.54l-.85.2-.78-3.26.85-.21a1.35,1.35,0,0,0,.15.62,1,1,0,0,0,.39.42,1.3,1.3,0,0,0,.75.17l1-.08,2.66-.15,3.75-.19,4.3-.24,11.65-.63.42,1.74-10.71,4.43c-1.35.57-2.67,1.11-4,1.63l-3.46,1.42-2.47,1.05Zm3.3-8.78,1,4.12,2.89-1.18,3.1-1.28,3-1.26,2.72-1.14c-.91,0-1.89.07-3,.14l-3.28.19c-1.13.06-2.24.13-3.35.21Z"/><path d="M207.18,173.54a.78.78,0,0,0,.1.38l.15.27-.77,0a3.09,3.09,0,0,1-.36-.5,1.88,1.88,0,0,1-.2-.83,2.46,2.46,0,0,1,.12-.92,2.43,2.43,0,0,1,.51-.87,3.27,3.27,0,0,1,1-.7,4.32,4.32,0,0,1,1.51-.39l5.73-.32a3.11,3.11,0,0,0,1.23-.27,1.81,1.81,0,0,0,.68-.59,1.84,1.84,0,0,0,.29-.73,5.1,5.1,0,0,0,.09-.71l-.08-1.43-9.16.51a1.49,1.49,0,0,0-.71.18c-.14.1-.23.2-.24.3a.48.48,0,0,0,0,.45l-.91.05-.23-4.19.91-.05a.44.44,0,0,0,0,.42.54.54,0,0,0,.28.31,1.25,1.25,0,0,0,.73.12l21.24-1.19a1.35,1.35,0,0,0,.73-.2.77.77,0,0,0,.29-.35,1.24,1.24,0,0,0,0-.42l.84,0,.28,5a5.71,5.71,0,0,1-.31,2.32,5,5,0,0,1-1,1.72,4.69,4.69,0,0,1-1.55,1.09,5.48,5.48,0,0,1-1.87.43l-3.81.22a5.53,5.53,0,0,1-2.7-.55,4.34,4.34,0,0,1-2-2.06,3,3,0,0,1-3,2.16l-5.59.32a7.75,7.75,0,0,0-1.55.21A.72.72,0,0,0,207.18,173.54Zm23.06-8.3-12.12.68.1,1.88a1.81,1.81,0,0,0,.24.74,2.63,2.63,0,0,0,.64.81,3.72,3.72,0,0,0,1.08.64,3.89,3.89,0,0,0,1.58.21l5.31-.3a3.6,3.6,0,0,0,1.5-.38,4,4,0,0,0,1-.76,3,3,0,0,0,.58-.87,1.92,1.92,0,0,0,.17-.77Z"/><path d="M230.05,190.11l-3.68-.43.1-.9a7.15,7.15,0,0,0,1.49,0,3.17,3.17,0,0,0,1.06-.46,1.37,1.37,0,0,0,.59-1l.17-1.43-22.22-2.58a1.47,1.47,0,0,0-.73.05.48.48,0,0,0-.29.29.41.41,0,0,0,0,.41l-.91-.1.49-4.21.91.11a.5.5,0,0,0,0,.45.51.51,0,0,0,.22.36,1.32,1.32,0,0,0,.69.24l22.22,2.58.17-1.46a1.38,1.38,0,0,0-.34-1.16,2.64,2.64,0,0,0-.93-.64,5,5,0,0,0-1.43-.41l.1-.94,3.69.43Z"/><path d="M205.62,193a1.25,1.25,0,0,0-.74,0,.56.56,0,0,0-.32.22.5.5,0,0,0-.11.45l-.89-.23,1-4.1.88.22a.61.61,0,0,0-.12.47.7.7,0,0,0,.19.32,1.35,1.35,0,0,0,.66.33l20.61,5.14a1.28,1.28,0,0,0,.77,0,1.07,1.07,0,0,0,.36-.18.93.93,0,0,0,.11-.47l.82.2-1,4.11-.81-.21a.72.72,0,0,0,.11-.44.91.91,0,0,0-.22-.36,1.3,1.3,0,0,0-.69-.33Z"/><path d="M222.92,213.43l-1.16,2.86L221,216a1,1,0,0,0,.2-.49.77.77,0,0,0-.16-.42,1.28,1.28,0,0,0-.6-.41L199,206l1.1-2.72,20.81,2.16L204,198.56a1.27,1.27,0,0,0-.71-.12.81.81,0,0,0-.38.21.89.89,0,0,0-.2.48l-.84-.34,1.15-2.85.85.34a.83.83,0,0,0-.19.45.88.88,0,0,0,.13.43,1.17,1.17,0,0,0,.58.43l19.66,8a1.14,1.14,0,0,0,.73.11.93.93,0,0,0,.41-.21,1,1,0,0,0,.18-.46l.81.33-1.34,3.31-22.05-2.25,18,7.28a1.15,1.15,0,0,0,.73.11.88.88,0,0,0,.41-.21.83.83,0,0,0,.18-.46Z"/><path d="M17.66,18.89H22l5.17,22.39.63,4.32.92-3.89,6.47-22.82H38.8l6.31,22.82.9,3.95.69-4.4,5.08-22.37h4.33l-7.93,32.7H44.25L37.52,27.76,37,25.27l-.52,2.49-7,23.83H25.57Z"/><path d="M58.27,40.12v-.77a14.55,14.55,0,0,1,1.38-6.45,10.71,10.71,0,0,1,3.87-4.45,9.68,9.68,0,0,1,5.37-1.61A9.11,9.11,0,0,1,76.26,30q2.63,3.13,2.63,8.94v1.73H62.43a8.65,8.65,0,0,0,2.1,5.81,6.61,6.61,0,0,0,5.11,2.21,7.19,7.19,0,0,0,3.72-.9A9.44,9.44,0,0,0,76,45.37l2.54,2Q75.52,52,69.41,52a10.64,10.64,0,0,1-8-3.24A12,12,0,0,1,58.27,40.12Zm16.46-2.9V36.9A7.88,7.88,0,0,0,73,32a5.23,5.23,0,0,0-4.14-1.74,5.55,5.55,0,0,0-4.22,1.83,8.88,8.88,0,0,0-2.11,5.13Z"/><path d="M82.78,17.09h4.15V30a8.43,8.43,0,0,1,6.94-3.12,8.23,8.23,0,0,1,6.95,3.35c1.69,2.23,2.53,5.29,2.53,9.16v.36q0,5.58-2.56,8.95A8.17,8.17,0,0,1,93.92,52a8.46,8.46,0,0,1-7.12-3.25l-.2,2.8H82.78Zm10.1,31.43a5.37,5.37,0,0,0,4.65-2.32q1.66-2.31,1.67-7a11.25,11.25,0,0,0-1.64-6.56,5.45,5.45,0,0,0-4.72-2.31,6.1,6.1,0,0,0-5.91,3.82V44.7A6.28,6.28,0,0,0,92.88,48.52Z"/><path d="M18.42,78.56v-.32a14.24,14.24,0,0,1,2.65-9,8.39,8.39,0,0,1,7-3.41,8.47,8.47,0,0,1,6.76,2.92V56.09h4.15v34.5H35.11l-.2-2.6A8.45,8.45,0,0,1,28,91a8.27,8.27,0,0,1-6.88-3.46A14.33,14.33,0,0,1,18.42,78.56Zm4.16.15a10.77,10.77,0,0,0,1.71,6.47A5.5,5.5,0,0,0,29,87.52,6.09,6.09,0,0,0,34.78,84V72.81a6.11,6.11,0,0,0-5.73-3.44,5.51,5.51,0,0,0-4.76,2.36Q22.58,74.08,22.58,78.71Z"/><path d="M43.4,79.12v-.77a14.55,14.55,0,0,1,1.38-6.45,10.71,10.71,0,0,1,3.87-4.45A9.69,9.69,0,0,1,54,65.84,9.1,9.1,0,0,1,61.39,69Q64,72.1,64,77.9v1.73H47.56a8.65,8.65,0,0,0,2.1,5.81,6.61,6.61,0,0,0,5.11,2.21,7.26,7.26,0,0,0,3.73-.9,9.54,9.54,0,0,0,2.67-2.38l2.54,2Q60.65,91,54.54,91a10.64,10.64,0,0,1-8-3.24A12,12,0,0,1,43.4,79.12Zm16.47-2.9V75.9A7.88,7.88,0,0,0,58.16,71,5.23,5.23,0,0,0,54,69.26a5.56,5.56,0,0,0-4.23,1.83,8.88,8.88,0,0,0-2.11,5.13Z"/><path d="M65.5,66.29h4.25L75.93,85l6-18.67h4.24l-8.71,24.3H74.31Z"/><path d="M89.36,88.42a2.59,2.59,0,0,1,.64-1.8,2.45,2.45,0,0,1,1.92-.72,2.51,2.51,0,0,1,1.94.72,2.56,2.56,0,0,1,.66,1.8,2.44,2.44,0,0,1-.66,1.73,2.57,2.57,0,0,1-1.94.69A2.5,2.5,0,0,1,90,90.15,2.47,2.47,0,0,1,89.36,88.42Z"/><path d="M102.49,202.77c-.53-.41-1-.69-1.38-1.06a59.62,59.62,0,0,1-10.68-13.65,10.19,10.19,0,0,1-1-2.86c-.29-1.5.2-2.23,1.71-2.52a34.61,34.61,0,0,1,3.67-.41c.47,0,1,0,1.51,0,0-.54,0-.95,0-1.35a10.41,10.41,0,0,1,.55-4.76c.66-1.56,1.47-2,3.05-1.31,2.13.86,4.23,1.82,6.35,2.74l1.22.55c0-.71,0-1.22,0-1.73L107,151.76c0-1.72-.33-2.2-2-2.63a25.55,25.55,0,0,0-8.32-.56,13.4,13.4,0,0,1-3.35-.1,5.32,5.32,0,0,1-4.12-7.32,8.35,8.35,0,0,1,4-4.49,20.91,20.91,0,0,1,8.47-2.34c1-.09,1.93-.11,2.89-.23a6.21,6.21,0,0,0,1.71-.42c.35-.15.82-.52.83-.81a1.31,1.31,0,0,0-.7-1,13.7,13.7,0,0,0-2.6-.79,20.74,20.74,0,0,0-7.2.14c-2.23.32-4.47.53-6.71.78a11.13,11.13,0,0,1-1.29.05c-3.63,0-5.65-2.54-4.82-6.08a8.63,8.63,0,0,1,4-5.46A19,19,0,0,1,96,117.6a25.16,25.16,0,0,1,13.85,2,21.2,21.2,0,0,0,2.56.94,1.59,1.59,0,0,0,1.81-.25c.56-.63.21-1.31-.12-1.94s-.66-1.11-.93-1.69c-1.16-2.48,0-4.59,2.72-4.87a9.24,9.24,0,0,1,2.87.17,25.06,25.06,0,0,1,9.13,3.88,65.61,65.61,0,0,1,10.23,8.81c2.44,2.57,4.76,5.25,7.14,7.87a5.15,5.15,0,0,0,.92.89c1,.64,1.58.41,1.92-.68.24-.77.41-1.56.71-2.31a3.17,3.17,0,0,1,2.77-2.15,2.81,2.81,0,0,1,2.76,1.63,26.65,26.65,0,0,1,1.58,3.68c.6,1.66,1.11,3.36,1.61,5.06a1.57,1.57,0,0,0,1.5,1.19c1.69.26,3.38.58,5.05,1a17.07,17.07,0,0,1,2.73,1,4.07,4.07,0,0,1,2.69,4c.13,3.64.59,7.27.85,10.91.23,3.21.39,6.43.54,9.65.09,1.85,0,1.83,1.9,2.32a41.86,41.86,0,0,1,5.09,1.48,24.82,24.82,0,0,1,4.5,2.45,7,7,0,0,1,3.15,6.2,17.75,17.75,0,0,1-2.76,9.94c-2.47,3.77-5,7.51-7.39,11.32-1.26,2-2.38,4.09-3.48,6.17a4.16,4.16,0,0,0-.4,1.85c0,1.56,0,3.12.05,4.67s-.31,2.55-1.78,3.07a1.73,1.73,0,0,0-.54.35c-3.93,3.38-8.65,5.1-13.53,6.49l-1.71.48s-.08.07-.24.19c-.78,4.67-4.06,7.74-7.7,10.75l2.4,4.51,1.76-.43a18.31,18.31,0,0,1,9.55,0,10.47,10.47,0,0,1,5,3,8.3,8.3,0,0,1,2.1,5.28,2.06,2.06,0,0,1-1.14,2.13,19.17,19.17,0,0,1-3.07,1.39,55.07,55.07,0,0,1-18.13,2.33,5.26,5.26,0,0,1-5.4-4.4c-.31-1.29-.34-2.64-.53-4a7,7,0,0,0-.45-1.83c-.47-1-1.06-2-1.69-3.08l-3,1.81a4.71,4.71,0,0,0,.43.71c2.32,2.68,2.62,5.8,1.93,9.1-.35,1.68-1.28,2.33-3,2.25-3.05-.14-6.1-.37-9.15-.48a3.85,3.85,0,0,1-3.43-2,47.15,47.15,0,0,1-3-6,52.56,52.56,0,0,1-1.82-6.67,3,3,0,0,1,2.44-4,9.07,9.07,0,0,1,6.16.33,2.34,2.34,0,0,0,2.53-.17c1.75-1.12,3.56-2.15,5.47-3.3-1-1.77-1.79-3.45-2.76-5-.21-.35-.89-.48-1.38-.57-3-.56-6.05-1-9-1.64a19.7,19.7,0,0,1-8.88-4.35,25.57,25.57,0,0,1-2-2.36c-2.38.66-3.89-.77-5.1-2.82a6.93,6.93,0,0,1-.89-5.71,1.86,1.86,0,0,0,0-1.07A3.88,3.88,0,0,1,102.49,202.77Zm11,14.25-.11.32c.66.39,1.29.83,2,1.16a36.28,36.28,0,0,0,10.54,2.8,75.55,75.55,0,0,0,21.81-.38,50.83,50.83,0,0,0,14.05-4,39.59,39.59,0,0,0,4.67-2.81,3.3,3.3,0,0,0,1.48-3.16c-.18-5.95-.26-11.91-.38-17.86q-.4-21-.84-42c0-.51-.07-1-.12-1.67l-.88.29c-2.69.9-5.34,2-8.08,2.67a118.08,118.08,0,0,1-23.91,3.07,89.5,89.5,0,0,1-18.14-.85c-1.74-.28-3.44-.74-5.3-1.16,0,.68,0,1.26,0,1.84l.33,13.52c.09,3.43.18,6.86.25,10.3,0,.85.08,1.62,1.55,1.84a8.45,8.45,0,0,1,.93-1.24A40,40,0,0,1,116.2,177a1.61,1.61,0,0,1,2.32,0,1.67,1.67,0,0,1-.1,2.21,2.73,2.73,0,0,1-.43.47q-4,3.83-8.07,7.63c-.82.77-1.66,1.53-2.52,2.25a4.14,4.14,0,0,0-1.41,3.13,39,39,0,0,0,1,9.29l2.08.8c-.25-2.67-.5-5.11-.7-7.56a5.17,5.17,0,0,1,1.5-4.26c2.88-2.95,5.73-5.95,8.6-8.91a4.65,4.65,0,0,1,1.15-.87,1.4,1.4,0,0,1,1.65.22,1.37,1.37,0,0,1,.32,1.76,8,8,0,0,1-1.08,1.39c-.58.68-1.19,1.33-2,2.25A17.35,17.35,0,0,1,120,188a60.57,60.57,0,0,1,8.57,10.84,45.42,45.42,0,0,1,5.95,14,12.85,12.85,0,0,1,.39,2.38,1.92,1.92,0,0,1-1.92,2.13,7.84,7.84,0,0,1-1.45-.08,45.15,45.15,0,0,1-10.29-2.53l-1.25-.44c-1.06,1-1.84,2.2-2.93,2.65S114.66,217,113.44,217ZM131.52,214c-2.63-10-7.93-18-15.14-25-1.34,1.33-2.57,2.59-3.83,3.81a3.17,3.17,0,0,0-.93,2.63,61.73,61.73,0,0,0,1.61,10.64,2.54,2.54,0,0,0,1.55,1.89,22.4,22.4,0,0,1,2.61,1.26,36.73,36.73,0,0,0,11.22,4.27C129.43,213.69,130.28,213.77,131.52,214Zm32,32.09a4.53,4.53,0,0,0-1.87-3.44,9,9,0,0,0-4-1.67,17.61,17.61,0,0,0-8.4.76,2.82,2.82,0,0,1-3.74-1.59c-2.6-4.92-5.18-9.86-7.85-14.94a28.53,28.53,0,0,0-4.72.15c.35.69.62,1.21.89,1.72q3.61,6.73,7.23,13.46a6.65,6.65,0,0,1,.85,3.53,11,11,0,0,0,.5,3.31,2.7,2.7,0,0,0,1.23,1.36,3.9,3.9,0,0,0,1.72.28,54.75,54.75,0,0,0,15.74-2C161.86,246.74,162.59,246.4,163.48,246.06Zm-30.71,3.36a21.69,21.69,0,0,0,0-2.81c-.54-3.76-3.59-5.17-6.86-3.22a9.19,9.19,0,0,1-1.25.72,1.4,1.4,0,0,1-1.74-.42,1.44,1.44,0,0,1,0-1.8,3.69,3.69,0,0,1,.78-.8,8.46,8.46,0,0,1,4.56-1.81,3.44,3.44,0,0,0,1.26-.17c1.78-1,3.52-2,5.41-3.06l-1.51-2.65c-2,1.14-3.77,2.17-5.56,3.24a5.13,5.13,0,0,1-5.19.32,5.3,5.3,0,0,0-4-.12,28.1,28.1,0,0,0,4,11.35,2,2,0,0,0,1.75.91C127.08,249.19,129.75,249.3,132.77,249.42ZM92.92,185.69c1.47,3.62,8,11.85,10.12,12.86-.05-.58-.15-1.11-.15-1.64,0-1.87-.06-3.74,0-5.61a5.27,5.27,0,0,1,1.8-3.66c1.19-1.09,2.39-2.15,3.57-3.24.34-.31.65-.65,1.09-1.11a39.91,39.91,0,0,0-9.8-5,15.21,15.21,0,0,0,0,2.16c.2,1.11.49,2.2.77,3.29a1.94,1.94,0,0,1-.41,2.09A1.67,1.67,0,0,1,98,186C96.4,185.32,94.76,185.61,92.92,185.69Zm78.38,13.93a5.56,5.56,0,0,0,.82-.75q4-6.13,8-12.26a14.51,14.51,0,0,0,2.07-7.35,4.77,4.77,0,0,0-2.41-4.58,20.09,20.09,0,0,0-6.69-2.66c-.65-.14-1.31-.24-2-.35-.35,3.46-.3,3.13,2.24,4.56.79.45,1.64.82,2.38,1.34a4.43,4.43,0,0,1,1.76,5.65,31.72,31.72,0,0,1-2.09,4.16c-1,1.67-2.07,3.26-3,5a8,8,0,0,0-1.07,2.81A34.48,34.48,0,0,0,171.3,199.62Zm-29.38,26.52c.76,1.58,1.59,3.15,2.53,4.81,2.5-2,4.59-3.95,5.69-7-2.14.27-4.08.55-6,.75A2.49,2.49,0,0,0,141.92,226.14Zm24.23-80.61c-1.32-1.41-5.07-2.53-7.13-2.19.32,1.6.63,3.21,1,5A18.19,18.19,0,0,0,166.15,145.53Zm5.33,42.05c.77-1.3,1.48-2.4,2.1-3.55,1.61-3,1.21-3.94-2.06-5a.82.82,0,0,0-.3,0A35.09,35.09,0,0,0,171.48,187.58Zm-55.71,26.3c.58-1,.63-1.15,0-1.49a29.15,29.15,0,0,0-3-1.45,1.23,1.23,0,0,0-.77.08,8.48,8.48,0,0,1-6.26-.39,3.38,3.38,0,0,0-.73-.14c.41,1.61.62,1.93,1.74,2.68a5.13,5.13,0,0,0,.52-.34c1.39-1.12,1.88-1.09,3.09.19.32.33.67.62,1,.9.23-.16.34-.2.39-.28,1.22-1.65,1.7-1.71,3.17-.4C115.16,213.47,115.47,213.66,115.77,213.88ZM110,207.93a5.5,5.5,0,0,0-3.29-2.51c-.6-.21-1.21-.42-1.76.11A4.38,4.38,0,0,0,110,207.93Z"/><path d="M148.31,119.76a1.82,1.82,0,0,1-2.61,1.84,6.43,6.43,0,0,1-1.28-.95c-2.07-1.61-4.13-3.23-6.21-4.83-1.7-1.3-3.48-2.5-5.09-3.91a6.93,6.93,0,0,1-1.79-2.6c-1-2.49.6-4.46,3.26-4.1a10.18,10.18,0,0,1,4.56,1.87,23.12,23.12,0,0,1,6.38,7.15c.85,1.42,1.6,2.9,2.37,4.38A6.82,6.82,0,0,1,148.31,119.76Z"/><path d="M146.11,199.85a14.74,14.74,0,0,1-11.36-6.68,7,7,0,0,1-.91-2.22,1.62,1.62,0,0,1,1.12-2,1.53,1.53,0,0,1,1.92,1.05c1.16,3.48,3.93,5.07,7.09,6.23a4.93,4.93,0,0,0,4.21-.13,1.54,1.54,0,0,1,2.24.5,1.74,1.74,0,0,1-.64,2.26A5.76,5.76,0,0,1,146.11,199.85Z"/><path d="M158,178.24a5.59,5.59,0,0,1-4.34-1.76,3,3,0,0,1-.76-1.53,1.44,1.44,0,0,1,2-1.46,4.13,4.13,0,0,1,.81.52,3.49,3.49,0,0,0,4.91-.17,14.74,14.74,0,0,0,1.17-1.31c.81-.87,1.67-1,2.4-.47a1.71,1.71,0,0,1,.17,2.46A7.91,7.91,0,0,1,158,178.24Z"/><path d="M140.46,180.93a18.41,18.41,0,0,1-2.87-.9,2.4,2.4,0,0,1-1.19-3,1.65,1.65,0,0,1,1.39-1.18,1.28,1.28,0,0,1,1.46.76,1.38,1.38,0,0,0,1.84.83c1.29-.33,2.54-.78,3.79-1.23.45-.16.84-.61,1.28-.63a2.48,2.48,0,0,1,1.58.44,1.25,1.25,0,0,1,.14,1.76,4.53,4.53,0,0,1-1.26,1.21A13.76,13.76,0,0,1,140.46,180.93Z"/></svg>